M48
METRIC,LZ,000.000
;FILE_FORMAT=3:3
;TYPE=NON_PLATED
;Layer: NPTH_Through
;EasyEDA v6.5.42, 2024-05-12 21:06:32
;fdf4e44396eb4d6a93e1883587b5baf6,156c37ef0924441e834bf69462bb4c55,10
;Gerber Generator version 0.2
;Holesize 1 = 0.551 mm
T01C0.551
;Holesize 2 = 0.992 mm
T02C0.992
;Holesize 3 = 1.751 mm
T03C1.751
;Holesize 4 = 3.101 mm
T04C3.101
;Holesize 5 = 4.000 mm
T05C4.000
;Holesize 6 = 4.064 mm
T06C4.064
%
G05
G90
T01
X209219Y092973
X216019Y092973
T02
X072805Y034325
X071790Y026705
X073820Y026705
T03
X190507Y049911
X180327Y049911
X016652Y068958
X006472Y068958
X006482Y088016
X016662Y088016
X025535Y088015
X035715Y088015
X044585Y088015
X054765Y088015
X063630Y088005
X073810Y088005
X082685Y088000
X092865Y088000
X101734Y088000
X111914Y088000
X120780Y088020
X130960Y088020
X139824Y088010
X150005Y088010
X158879Y088020
X169059Y088020
X177929Y088020
X188109Y088020
X196974Y088009
X207155Y088009
X220657Y088021
X230837Y088021
X008855Y068965
X019035Y068965
X030290Y068965
X040470Y068965
X049340Y068965
X059520Y068965
X068390Y068965
X078570Y068965
X087440Y068965
X097620Y068965
X106490Y068965
X116670Y068965
X125540Y068965
X135720Y068965
X144595Y068960
X154775Y068960
X163640Y068965
X173820Y068965
X182690Y068965
X192870Y068965
X213644Y068970
X223825Y068970
X013640Y049915
X023820Y049915
X039830Y049915
X050010Y049915
X058880Y049915
X069060Y049915
X077930Y049915
X088110Y049915
X096980Y049915
X107160Y049915
X116030Y049915
X126210Y049915
X135085Y049910
X145265Y049910
X154135Y049910
X164315Y049910
X177945Y049915
X188125Y049915
X206509Y049920
X216689Y049920
X225560Y049915
X235740Y049915
X008855Y030850
X019035Y030850
X032665Y030840
X042845Y030840
X054100Y030859
X064280Y030859
X085055Y030865
X095235Y030865
X132680Y030865
X142860Y030865
X168400Y030865
X178580Y030865
X187455Y030865
X197635Y030865
X206505Y030865
X216685Y030865
X225554Y030865
X235734Y030865
T04
X206786Y062050
X230662Y062050
X078196Y023940
X102072Y023940
X125821Y023945
X149697Y023945
T05
X185407Y049841
X011552Y068888
X030615Y087945
X049665Y087945
X068710Y087935
X087765Y087930
X106814Y087930
X125860Y087950
X144904Y087940
X163959Y087950
X183009Y087950
X202054Y087940
X225737Y087951
X218724Y068900
X187770Y068895
X168720Y068895
X149675Y068890
X130620Y068895
X111570Y068895
X092520Y068895
X073470Y068895
X054420Y068895
X035370Y068895
X013935Y068895
X230640Y049845
X211589Y049850
X183025Y049845
X159215Y049840
X140165Y049840
X121110Y049845
X102060Y049845
X083010Y049845
X063960Y049845
X044910Y049845
X018720Y049845
X013935Y030780
X037745Y030770
X059180Y030789
X090135Y030795
X137760Y030795
X173480Y030795
X192535Y030795
X211585Y030795
X230634Y030795
X011562Y087946
T06
X230662Y077290
X206786Y077290
X102072Y039180
X078196Y039180
X149697Y039185
X125821Y039185
M30
