M48
METRIC,LZ,000.000
;FILE_FORMAT=3:3
;TYPE=PLATED
;Layer: PTH_Through
;EasyEDA v6.5.42, 2024-05-12 21:06:32
;fdf4e44396eb4d6a93e1883587b5baf6,156c37ef0924441e834bf69462bb4c55,10
;Gerber Generator version 0.2
;Holesize 1 = 0.310 mm
T01C0.310
;Holesize 2 = 0.600 mm
T02C0.600
;Holesize 3 = 1.200 mm
T03C1.200
;Holesize 4 = 1.501 mm
T04C1.501
;Holesize 5 = 2.400 mm
T05C2.400
%
G05
G90
T01
X212715Y094155
X213730Y094170
X213119Y089635
X116460Y040605
X116375Y031910
X078060Y033035
X070240Y031765
X067165Y027465
X076450Y031795
X154720Y033480
X114940Y033265
X154660Y035175
X108505Y022720
X118310Y045795
X095070Y039895
X068575Y030535
X157000Y026760
X170680Y026745
X037732Y082366
X057036Y082366
X076335Y082371
X095644Y082366
X114948Y082366
X134252Y082381
X153556Y082366
X172860Y082366
X192164Y082366
X228462Y082306
X194975Y062960
X175586Y063315
X156541Y063310
X137486Y063315
X118436Y063315
X099386Y063315
X080336Y063315
X061286Y063315
X042236Y063315
X021975Y062835
X235940Y045080
X216885Y045090
X189891Y044265
X166081Y044260
X147031Y044260
X129390Y043695
X109920Y045090
X089876Y044265
X070826Y044265
X051776Y044265
X025586Y044265
X022960Y024895
X044611Y025190
X066045Y024490
X070805Y024280
X095430Y026040
X180346Y025215
X199401Y025215
X218451Y025215
X237501Y025215
X021765Y080250
X041400Y080265
X060450Y080265
X079590Y080265
X099000Y080325
X118170Y080310
X137520Y080235
X156960Y080145
X176355Y080205
X195555Y080220
X198380Y048365
X196125Y048375
X212215Y080415
X213750Y084180
X218328Y084286
X212940Y078735
X215745Y087850
X213615Y082390
X210895Y084345
X020095Y073945
X024780Y061545
X041400Y073995
X045690Y061455
X060450Y073980
X064980Y061440
X079535Y073945
X084150Y061500
X103065Y061455
X098585Y073945
X117635Y073945
X125370Y061465
X136685Y073945
X155740Y073940
X142440Y061485
X160035Y061425
X174785Y073945
X193835Y073945
X179445Y061365
X195770Y061095
X149955Y031755
X084605Y024490
X082745Y022695
X024780Y054900
X050975Y054895
X021500Y041375
X055095Y042270
X108125Y054895
X089075Y054895
X070025Y054894
X069255Y042315
X074790Y042300
X110820Y044400
X110805Y045885
X146230Y054890
X143580Y042150
X184915Y041940
X192070Y054920
X184900Y039120
X193335Y054970
X199665Y042440
X214130Y041905
X211315Y065195
X198595Y062135
X222864Y082310
X212895Y077770
X204855Y083890
X008762Y082396
X016735Y064845
X023445Y064365
X011135Y063345
X030105Y064485
X038170Y064845
X032570Y063345
X043290Y064485
X049260Y064485
X057220Y064845
X051620Y063345
X076270Y064845
X062265Y064500
X068340Y064500
X192510Y042995
X198320Y042260
X081825Y064485
X087270Y064470
X070670Y063345
X095320Y064845
X089720Y063345
X114370Y064845
X108770Y063345
X133420Y064845
X127820Y063345
X146875Y063340
X152475Y064840
X165920Y063345
X171525Y064845
X184970Y063345
X190570Y064845
X221525Y064850
X100635Y064470
X106020Y064455
X119685Y064455
X126170Y064385
X138660Y064425
X144435Y064395
X157590Y064365
X163305Y064350
X176865Y064335
X182505Y064305
X194960Y064220
X197950Y066380
X225960Y059150
X233440Y045795
X198345Y047225
X196245Y047240
X015945Y044265
X016735Y026730
X040550Y026720
X025205Y024050
X044580Y024005
X062005Y026740
X063345Y024015
X092965Y026745
X140570Y026730
X087340Y025240
X096830Y022710
X106820Y022130
X176280Y026740
X168430Y028070
X195335Y026745
X186234Y023685
X205224Y023700
X214390Y026745
X233435Y026745
X220300Y025155
X129825Y048750
X133080Y042165
X120600Y067020
X124310Y061430
X132000Y042150
X109510Y036390
X117815Y038300
X118905Y037475
X121650Y031135
X127175Y054894
X119080Y040650
X117950Y041415
X105640Y031965
X106300Y031290
X122430Y023370
X153705Y021675
X238865Y052065
X232065Y083820
X126390Y060015
X018428Y082366
X078029Y031549
X075945Y027975
X123910Y044295
X118295Y042275
X214390Y044300
X209795Y074110
X209780Y071205
X224015Y064140
X209865Y080895
X204856Y082390
X193066Y064134
X118695Y032460
X120915Y030285
X131010Y029040
X107910Y026765
X106995Y028650
X082725Y027130
X105720Y030660
X119535Y027640
X119825Y025115
X115280Y026835
X112245Y026890
X111570Y027575
X124120Y034960
X108635Y036900
X108630Y032715
X110055Y029500
X115745Y038555
X115745Y035300
X106355Y041039
X114175Y032590
X153350Y032535
X162415Y042070
X211495Y088200
X109720Y032645
X114000Y029975
T02
X208300Y096823G85X208300Y095522
X216939Y096823G85X216939Y095523
T03
X216679Y091922G85X216679Y091322
X208560Y091922G85X208560Y091322
T04
X181548Y052351
X187961Y054895
X007692Y071398
X014092Y073942
X014115Y093000
X007702Y090456
X033155Y092995
X026755Y090455
X045805Y090455
X052205Y092995
X064850Y090445
X071249Y092985
X083905Y090440
X090305Y092980
X010075Y071405
X016475Y073945
X031510Y071405
X037910Y073945
X050560Y071405
X056960Y073945
X076010Y073945
X069610Y071405
X088660Y071405
X095060Y073945
X014860Y052355
X021259Y054895
X010075Y033290
X016475Y035830
X033885Y033280
X040285Y035820
X041050Y052355
X047450Y054895
X055320Y033299
X061720Y035839
X060100Y052355
X066500Y054895
X079150Y052355
X085550Y054895
X086275Y033305
X092675Y035845
X098200Y052355
X104600Y054895
X102954Y090440
X109354Y092980
X107710Y071405
X114110Y073945
X122000Y090460
X128399Y093000
X141045Y090450
X147444Y092990
X126760Y071405
X133160Y073945
X145815Y071400
X152214Y073940
X160099Y090460
X164860Y071405
X171260Y073945
X117250Y052355
X123650Y054895
X133900Y033305
X140300Y035845
X136305Y052350
X142704Y054890
X155355Y052350
X161754Y054890
X169620Y033305
X176020Y035845
X179165Y052355
X185565Y054895
X183910Y071405
X190309Y073945
X179149Y090460
X166499Y093000
X185549Y093000
X198195Y090450
X204594Y092990
X188675Y033305
X195075Y035845
X207725Y033305
X214124Y035845
X207729Y052360
X214129Y054900
X226774Y033305
X233174Y035845
X226780Y052355
X233179Y054895
X214864Y071410
X221264Y073950
X221878Y090461
X228277Y093001
T05
X024635Y078490
X024635Y040425
X024635Y078490
X217554Y040420
X217555Y079750
X121070Y059450
M30
