G04 Layer: BoardOutlineLayer*
G04 EasyEDA v6.5.42, 2024-05-12 21:06:32*
G04 fdf4e44396eb4d6a93e1883587b5baf6,156c37ef0924441e834bf69462bb4c55,10*
G04 Gerber Generator version 0.2*
G04 Scale: 100 percent, Rotated: No, Reflected: No *
G04 Dimensions in millimeters *
G04 leading zeros omitted , absolute positions ,4 integer and 5 decimal *
%FSLAX45Y45*%
%MOMM*%

%ADD10C,0.2540*%
D10*
X145498Y2275994D02*
G01*
X145498Y9608980D01*
X23874953Y2075995D02*
G01*
X345498Y2075995D01*
X345498Y9808979D02*
G01*
X23874953Y9808979D01*
X24074950Y9608980D02*
G01*
X24074950Y2275994D01*
G75*
G01*
X345498Y2075995D02*
G02*
X145499Y2275995I0J200000D01*
G75*
G01*
X24074951Y2275997D02*
G02*
X23874951Y2075995I-200000J-2D01*
G75*
G01*
X23874954Y9808980D02*
G02*
X24074951Y9608980I-3J-200000D01*
G75*
G01*
X145499Y9608980D02*
G02*
X345498Y9808980I199999J0D01*
G75*
G01*
X976213Y8194558D02*
G03*
X1016211Y8154561I40000J3D01*
X1016210Y8154560D02*
G01*
X1016210Y8154576D01*
X1016210Y8154576D02*
G01*
X1296205Y8154576D01*
G75*
G01*
X1296205Y8154576D02*
G03*
X1296843Y8154563I1116J39984D01*
X1296842Y8154563D02*
G01*
X1296842Y8154563D01*
G75*
G01*
X1296843Y8154563D02*
G03*
X1336210Y8194558I-633J39995D01*
G75*
G01*
X1336210Y8194558D02*
G03*
X1336210Y8194545I40000J-6D01*
X1336210Y8194545D02*
G01*
X1336210Y8194583D01*
X1336210Y8194583D02*
G01*
X1336210Y8434590D01*
G75*
G01*
X1336210Y8434591D02*
G03*
X1296205Y8474591I-40000J0D01*
X1296205Y8474590D02*
G01*
X1016210Y8474590D01*
X1016210Y8474590D02*
G01*
X1016210Y8474608D01*
G75*
G01*
X1016211Y8474608D02*
G03*
X976213Y8434608I2J-40000D01*
X976213Y8434608D02*
G01*
X976213Y8194558D01*
X976213Y8194558D02*
G01*
X976213Y8194558D01*
G75*
G01*
X2881493Y8194457D02*
G03*
X2921490Y8154459I40000J2D01*
X2921490Y8154459D02*
G01*
X2921490Y8154474D01*
X2921490Y8154474D02*
G01*
X3201484Y8154474D01*
G75*
G01*
X3201485Y8154474D02*
G03*
X3202122Y8154462I1115J39985D01*
X3202122Y8154461D02*
G01*
X3202122Y8154461D01*
G75*
G01*
X3202122Y8154462D02*
G03*
X3241490Y8194457I-632J39995D01*
G75*
G01*
X3241490Y8194457D02*
G03*
X3241490Y8194444I39999J-7D01*
X3241489Y8194443D02*
G01*
X3241489Y8194481D01*
X3241489Y8194481D02*
G01*
X3241489Y8434489D01*
G75*
G01*
X3241490Y8434489D02*
G03*
X3201485Y8474489I-40000J0D01*
X3201484Y8474489D02*
G01*
X2921490Y8474489D01*
X2921490Y8474489D02*
G01*
X2921490Y8474506D01*
G75*
G01*
X2921490Y8474507D02*
G03*
X2881493Y8434507I3J-40000D01*
X2881492Y8434506D02*
G01*
X2881492Y8194456D01*
X2881492Y8194456D02*
G01*
X2881492Y8194456D01*
G75*
G01*
X4786490Y8194457D02*
G03*
X4826488Y8154459I40000J2D01*
X4826487Y8154459D02*
G01*
X4826487Y8154474D01*
X4826487Y8154474D02*
G01*
X5106482Y8154474D01*
G75*
G01*
X5106482Y8154474D02*
G03*
X5107120Y8154462I1115J39985D01*
X5107119Y8154461D02*
G01*
X5107119Y8154461D01*
G75*
G01*
X5107120Y8154462D02*
G03*
X5146487Y8194457I-633J39995D01*
G75*
G01*
X5146487Y8194457D02*
G03*
X5146487Y8194444I40000J-7D01*
X5146487Y8194443D02*
G01*
X5146487Y8194481D01*
X5146487Y8194481D02*
G01*
X5146487Y8434489D01*
G75*
G01*
X5146487Y8434489D02*
G03*
X5106482Y8474489I-40000J0D01*
X5106482Y8474489D02*
G01*
X4826487Y8474489D01*
X4826487Y8474489D02*
G01*
X4826487Y8474506D01*
G75*
G01*
X4826488Y8474507D02*
G03*
X4786490Y8434507I2J-40000D01*
X4786490Y8434506D02*
G01*
X4786490Y8194456D01*
X4786490Y8194456D02*
G01*
X4786490Y8194456D01*
G75*
G01*
X6690990Y8193463D02*
G03*
X6730987Y8153466I40000J3D01*
X6730987Y8153466D02*
G01*
X6730987Y8153481D01*
X6730987Y8153481D02*
G01*
X7010981Y8153481D01*
G75*
G01*
X7010982Y8153481D02*
G03*
X7011619Y8153469I1115J39985D01*
X7011619Y8153468D02*
G01*
X7011619Y8153468D01*
G75*
G01*
X7011619Y8153469D02*
G03*
X7050987Y8193463I-632J39994D01*
G75*
G01*
X7050987Y8193463D02*
G03*
X7050987Y8193451I40000J-6D01*
X7050986Y8193450D02*
G01*
X7050986Y8193488D01*
X7050986Y8193488D02*
G01*
X7050986Y8433495D01*
G75*
G01*
X7050987Y8433496D02*
G03*
X7010982Y8473496I-40000J0D01*
X7010981Y8473495D02*
G01*
X6730987Y8473495D01*
X6730987Y8473495D02*
G01*
X6730987Y8473513D01*
G75*
G01*
X6730987Y8473514D02*
G03*
X6690990Y8433514I3J-40000D01*
X6690989Y8433513D02*
G01*
X6690989Y8193463D01*
X6690989Y8193463D02*
G01*
X6690989Y8193463D01*
G75*
G01*
X8596483Y8192958D02*
G03*
X8636480Y8152961I40000J2D01*
X8636480Y8152960D02*
G01*
X8636480Y8152975D01*
X8636480Y8152975D02*
G01*
X8916474Y8152975D01*
G75*
G01*
X8916474Y8152976D02*
G03*
X8917112Y8152963I1116J39984D01*
X8917111Y8152963D02*
G01*
X8917111Y8152963D01*
G75*
G01*
X8917112Y8152963D02*
G03*
X8956479Y8192958I-632J39995D01*
G75*
G01*
X8956479Y8192958D02*
G03*
X8956479Y8192945I40000J-6D01*
X8956479Y8192945D02*
G01*
X8956479Y8192983D01*
X8956479Y8192983D02*
G01*
X8956479Y8432990D01*
G75*
G01*
X8956479Y8432991D02*
G03*
X8916474Y8472990I-40000J0D01*
X8916474Y8472990D02*
G01*
X8636480Y8472990D01*
X8636480Y8472990D02*
G01*
X8636480Y8473008D01*
G75*
G01*
X8636480Y8473008D02*
G03*
X8596483Y8433008I3J-40000D01*
X8596482Y8433008D02*
G01*
X8596482Y8192957D01*
X8596482Y8192957D02*
G01*
X8596482Y8192957D01*
G75*
G01*
X10501478Y8192958D02*
G03*
X10541475Y8152961I40000J2D01*
X10541474Y8152960D02*
G01*
X10541474Y8152975D01*
X10541474Y8152975D02*
G01*
X10821469Y8152975D01*
G75*
G01*
X10821469Y8152976D02*
G03*
X10822107Y8152963I1116J39984D01*
X10822106Y8152963D02*
G01*
X10822106Y8152963D01*
G75*
G01*
X10822107Y8152963D02*
G03*
X10861474Y8192958I-633J39995D01*
G75*
G01*
X10861474Y8192958D02*
G03*
X10861474Y8192945I40000J-6D01*
X10861474Y8192945D02*
G01*
X10861474Y8192983D01*
X10861474Y8192983D02*
G01*
X10861474Y8432990D01*
G75*
G01*
X10861474Y8432991D02*
G03*
X10821469Y8472990I-40000J0D01*
X10821469Y8472990D02*
G01*
X10541474Y8472990D01*
X10541474Y8472990D02*
G01*
X10541474Y8473008D01*
G75*
G01*
X10541475Y8473008D02*
G03*
X10501478Y8433008I3J-40000D01*
X10501477Y8433008D02*
G01*
X10501477Y8192957D01*
X10501477Y8192957D02*
G01*
X10501477Y8192957D01*
G75*
G01*
X12405977Y8194965D02*
G03*
X12445975Y8154967I40000J2D01*
X12445974Y8154967D02*
G01*
X12445974Y8154982D01*
X12445974Y8154982D02*
G01*
X12725968Y8154982D01*
G75*
G01*
X12725969Y8154982D02*
G03*
X12726606Y8154970I1115J39985D01*
X12726606Y8154969D02*
G01*
X12726606Y8154969D01*
G75*
G01*
X12726606Y8154970D02*
G03*
X12765974Y8194965I-632J39995D01*
G75*
G01*
X12765974Y8194965D02*
G03*
X12765974Y8194952I40000J-7D01*
X12765973Y8194951D02*
G01*
X12765973Y8194989D01*
X12765973Y8194989D02*
G01*
X12765973Y8434997D01*
G75*
G01*
X12765974Y8434997D02*
G03*
X12725969Y8474997I-40000J0D01*
X12725968Y8474997D02*
G01*
X12445974Y8474997D01*
X12445974Y8474997D02*
G01*
X12445974Y8475014D01*
G75*
G01*
X12445975Y8475015D02*
G03*
X12405977Y8435015I2J-40000D01*
X12405977Y8435014D02*
G01*
X12405977Y8194964D01*
X12405977Y8194964D02*
G01*
X12405977Y8194964D01*
G75*
G01*
X14310479Y8193938D02*
G03*
X14350477Y8153941I40000J3D01*
X14350476Y8153941D02*
G01*
X14350476Y8153956D01*
X14350476Y8153956D02*
G01*
X14630471Y8153956D01*
G75*
G01*
X14630471Y8153956D02*
G03*
X14631109Y8153944I1116J39985D01*
X14631108Y8153943D02*
G01*
X14631108Y8153943D01*
G75*
G01*
X14631109Y8153944D02*
G03*
X14670476Y8193938I-633J39994D01*
G75*
G01*
X14670476Y8193938D02*
G03*
X14670476Y8193926I40000J-6D01*
X14670476Y8193925D02*
G01*
X14670476Y8193963D01*
X14670476Y8193963D02*
G01*
X14670476Y8433970D01*
G75*
G01*
X14670476Y8433971D02*
G03*
X14630471Y8473971I-40000J0D01*
X14630471Y8473970D02*
G01*
X14350476Y8473970D01*
X14350476Y8473970D02*
G01*
X14350476Y8473988D01*
G75*
G01*
X14350477Y8473989D02*
G03*
X14310479Y8433989I2J-40000D01*
X14310479Y8433988D02*
G01*
X14310479Y8193938D01*
X14310479Y8193938D02*
G01*
X14310479Y8193938D01*
G75*
G01*
X16215970Y8194965D02*
G03*
X16255967Y8154967I40000J2D01*
X16255966Y8154967D02*
G01*
X16255966Y8154982D01*
X16255966Y8154982D02*
G01*
X16535961Y8154982D01*
G75*
G01*
X16535961Y8154982D02*
G03*
X16536599Y8154970I1116J39985D01*
X16536598Y8154969D02*
G01*
X16536598Y8154969D01*
G75*
G01*
X16536599Y8154970D02*
G03*
X16575966Y8194965I-633J39995D01*
G75*
G01*
X16575966Y8194965D02*
G03*
X16575966Y8194952I40000J-7D01*
X16575966Y8194951D02*
G01*
X16575966Y8194989D01*
X16575966Y8194989D02*
G01*
X16575966Y8434997D01*
G75*
G01*
X16575966Y8434997D02*
G03*
X16535961Y8474997I-40000J0D01*
X16535961Y8474997D02*
G01*
X16255966Y8474997D01*
X16255966Y8474997D02*
G01*
X16255966Y8475014D01*
G75*
G01*
X16255967Y8475015D02*
G03*
X16215970Y8435015I3J-40000D01*
X16215969Y8435014D02*
G01*
X16215969Y8194964D01*
X16215969Y8194964D02*
G01*
X16215969Y8194964D01*
G75*
G01*
X18120967Y8194965D02*
G03*
X18160964Y8154967I40000J2D01*
X18160964Y8154967D02*
G01*
X18160964Y8154982D01*
X18160964Y8154982D02*
G01*
X18440958Y8154982D01*
G75*
G01*
X18440959Y8154982D02*
G03*
X18441596Y8154970I1115J39985D01*
X18441596Y8154969D02*
G01*
X18441596Y8154969D01*
G75*
G01*
X18441596Y8154970D02*
G03*
X18480964Y8194965I-632J39995D01*
G75*
G01*
X18480964Y8194965D02*
G03*
X18480964Y8194952I40000J-7D01*
X18480963Y8194951D02*
G01*
X18480963Y8194989D01*
X18480963Y8194989D02*
G01*
X18480963Y8434997D01*
G75*
G01*
X18480964Y8434997D02*
G03*
X18440959Y8474997I-40000J0D01*
X18440958Y8474997D02*
G01*
X18160964Y8474997D01*
X18160964Y8474997D02*
G01*
X18160964Y8475014D01*
G75*
G01*
X18160964Y8475015D02*
G03*
X18120967Y8435015I3J-40000D01*
X18120967Y8435014D02*
G01*
X18120967Y8194964D01*
X18120967Y8194964D02*
G01*
X18120967Y8194964D01*
G75*
G01*
X20025469Y8193936D02*
G03*
X20065467Y8153938I40000J2D01*
X20065466Y8153938D02*
G01*
X20065466Y8153953D01*
X20065466Y8153953D02*
G01*
X20345460Y8153953D01*
G75*
G01*
X20345461Y8153954D02*
G03*
X20346099Y8153941I1115J39984D01*
X20346098Y8153941D02*
G01*
X20346098Y8153941D01*
G75*
G01*
X20346099Y8153941D02*
G03*
X20385466Y8193936I-633J39995D01*
G75*
G01*
X20385466Y8193936D02*
G03*
X20385466Y8193923I40000J-6D01*
X20385465Y8193923D02*
G01*
X20385465Y8193961D01*
X20385465Y8193961D02*
G01*
X20385465Y8433968D01*
G75*
G01*
X20385466Y8433968D02*
G03*
X20345461Y8473968I-40000J0D01*
X20345460Y8473968D02*
G01*
X20065466Y8473968D01*
X20065466Y8473968D02*
G01*
X20065466Y8473986D01*
G75*
G01*
X20065467Y8473986D02*
G03*
X20025469Y8433986I2J-40000D01*
X20025469Y8433986D02*
G01*
X20025469Y8193935D01*
X20025469Y8193935D02*
G01*
X20025469Y8193935D01*
G75*
G01*
X22386460Y8185955D02*
G03*
X22426458Y8145958I40000J3D01*
X22426457Y8145957D02*
G01*
X22426457Y8145973D01*
X22426457Y8145973D02*
G01*
X22706451Y8145973D01*
G75*
G01*
X22706452Y8145973D02*
G03*
X22707089Y8145960I1115J39984D01*
X22707089Y8145960D02*
G01*
X22707089Y8145960D01*
G75*
G01*
X22707089Y8145960D02*
G03*
X22746457Y8185955I-632J39995D01*
G75*
G01*
X22746457Y8185955D02*
G03*
X22746457Y8185942I40000J-6D01*
X22746456Y8185942D02*
G01*
X22746456Y8185980D01*
X22746456Y8185980D02*
G01*
X22746456Y8425987D01*
G75*
G01*
X22746457Y8425988D02*
G03*
X22706452Y8465988I-40000J0D01*
X22706451Y8465987D02*
G01*
X22426457Y8465987D01*
X22426457Y8465987D02*
G01*
X22426457Y8466005D01*
G75*
G01*
X22426458Y8466005D02*
G03*
X22386460Y8426006I2J-39999D01*
X22386460Y8426005D02*
G01*
X22386460Y8185955D01*
X22386460Y8185955D02*
G01*
X22386460Y8185955D01*
G75*
G01*
X1213495Y6289462D02*
G03*
X1253493Y6249464I40000J2D01*
X1253492Y6249464D02*
G01*
X1253492Y6249479D01*
X1253492Y6249479D02*
G01*
X1533486Y6249479D01*
G75*
G01*
X1533487Y6249480D02*
G03*
X1534124Y6249467I1115J39984D01*
X1534124Y6249466D02*
G01*
X1534124Y6249466D01*
G75*
G01*
X1534124Y6249467D02*
G03*
X1573492Y6289462I-632J39995D01*
G75*
G01*
X1573492Y6289462D02*
G03*
X1573492Y6289449I40000J-7D01*
X1573491Y6289448D02*
G01*
X1573491Y6289487D01*
X1573491Y6289487D02*
G01*
X1573491Y6529494D01*
G75*
G01*
X1573492Y6529494D02*
G03*
X1533487Y6569494I-40000J0D01*
X1533486Y6569494D02*
G01*
X1253492Y6569494D01*
X1253492Y6569494D02*
G01*
X1253492Y6569511D01*
G75*
G01*
X1253493Y6569512D02*
G03*
X1213495Y6529512I2J-40000D01*
X1213495Y6529511D02*
G01*
X1213495Y6289461D01*
X1213495Y6289461D02*
G01*
X1213495Y6289461D01*
G75*
G01*
X3357024Y6289446D02*
G03*
X3397019Y6249449I40000J3D01*
X3397018Y6249449D02*
G01*
X3397018Y6249466D01*
X3397018Y6249466D02*
G01*
X3677013Y6249466D01*
G75*
G01*
X3677013Y6249467D02*
G03*
X3677653Y6249449I1431J39974D01*
X3677653Y6249449D02*
G01*
X3677653Y6249449D01*
G75*
G01*
X3677653Y6249449D02*
G03*
X3717021Y6289446I-632J39995D01*
G75*
G01*
X3717021Y6289446D02*
G03*
X3717021Y6289434I40000J-6D01*
X3717020Y6289433D02*
G01*
X3717020Y6289474D01*
X3717020Y6289474D02*
G01*
X3717020Y6529478D01*
G75*
G01*
X3717021Y6529479D02*
G03*
X3677013Y6569479I-40000J0D01*
X3677013Y6569478D02*
G01*
X3397018Y6569478D01*
X3397018Y6569478D02*
G01*
X3397018Y6569496D01*
G75*
G01*
X3397019Y6569497D02*
G03*
X3357024Y6529494I5J-40000D01*
X3357024Y6529494D02*
G01*
X3357024Y6289446D01*
X3357024Y6289446D02*
G01*
X3357024Y6289446D01*
G75*
G01*
X5262019Y6289451D02*
G03*
X5302016Y6249449I40000J-2D01*
X5302016Y6249449D02*
G01*
X5302016Y6249456D01*
X5302016Y6249456D02*
G01*
X5582010Y6249456D01*
G75*
G01*
X5582011Y6249457D02*
G03*
X5582648Y6249449I796J39992D01*
X5582648Y6249449D02*
G01*
X5582648Y6249449D01*
G75*
G01*
X5582648Y6249449D02*
G03*
X5622016Y6289451I-632J39995D01*
G75*
G01*
X5622016Y6289451D02*
G03*
X5622016Y6289434I40000J-8D01*
X5622015Y6289433D02*
G01*
X5622015Y6289474D01*
X5622015Y6289474D02*
G01*
X5622015Y6529484D01*
G75*
G01*
X5622016Y6529484D02*
G03*
X5582011Y6569479I-40000J-5D01*
X5582010Y6569478D02*
G01*
X5302016Y6569478D01*
X5302016Y6569478D02*
G01*
X5302016Y6569496D01*
G75*
G01*
X5302016Y6569497D02*
G03*
X5262019Y6529497I3J-40000D01*
X5262018Y6529496D02*
G01*
X5262018Y6289451D01*
X5262018Y6289451D02*
G01*
X5262018Y6289451D01*
G75*
G01*
X7167014Y6289444D02*
G03*
X7207011Y6249449I40000J5D01*
X7207011Y6249449D02*
G01*
X7207011Y6249461D01*
X7207011Y6249461D02*
G01*
X7487005Y6249461D01*
G75*
G01*
X7487006Y6249462D02*
G03*
X7487643Y6249449I1115J39984D01*
X7487643Y6249449D02*
G01*
X7487643Y6249449D01*
G75*
G01*
X7487643Y6249449D02*
G03*
X7527011Y6289444I-632J39995D01*
G75*
G01*
X7527011Y6289444D02*
G03*
X7527011Y6289434I40000J-5D01*
X7527010Y6289433D02*
G01*
X7527010Y6289469D01*
X7527010Y6289469D02*
G01*
X7527010Y6529476D01*
G75*
G01*
X7527011Y6529476D02*
G03*
X7487006Y6569479I-40000J3D01*
X7487005Y6569478D02*
G01*
X7207011Y6569478D01*
X7207011Y6569478D02*
G01*
X7207011Y6569496D01*
G75*
G01*
X7207011Y6569497D02*
G03*
X7167014Y6529494I3J-40000D01*
X7167013Y6529494D02*
G01*
X7167013Y6289443D01*
X7167013Y6289443D02*
G01*
X7167013Y6289443D01*
G75*
G01*
X9072014Y6289451D02*
G03*
X9112011Y6249449I40000J-2D01*
X9112011Y6249449D02*
G01*
X9112011Y6249466D01*
X9112011Y6249466D02*
G01*
X9392010Y6249466D01*
G75*
G01*
X9392011Y6249467D02*
G03*
X9392643Y6249457I958J39988D01*
X9392643Y6249456D02*
G01*
X9392643Y6249456D01*
G75*
G01*
X9392643Y6249457D02*
G03*
X9432011Y6289451I-632J39995D01*
G75*
G01*
X9432011Y6289451D02*
G03*
X9432011Y6289434I40000J-8D01*
X9432010Y6289433D02*
G01*
X9432010Y6289474D01*
X9432010Y6289474D02*
G01*
X9432010Y6529484D01*
G75*
G01*
X9432011Y6529484D02*
G03*
X9392011Y6569479I-40000J-5D01*
X9392010Y6569478D02*
G01*
X9112011Y6569478D01*
X9112011Y6569478D02*
G01*
X9112011Y6569496D01*
G75*
G01*
X9112011Y6569497D02*
G03*
X9072014Y6529502I3J-40000D01*
X9072013Y6529501D02*
G01*
X9072013Y6289451D01*
X9072013Y6289451D02*
G01*
X9072013Y6289451D01*
G75*
G01*
X10977009Y6289446D02*
G03*
X11017006Y6249449I40000J3D01*
X11017006Y6249449D02*
G01*
X11017006Y6249464D01*
X11017006Y6249464D02*
G01*
X11297000Y6249464D01*
G75*
G01*
X11297001Y6249464D02*
G03*
X11297638Y6249452I1115J39985D01*
X11297638Y6249451D02*
G01*
X11297638Y6249451D01*
G75*
G01*
X11297638Y6249452D02*
G03*
X11337006Y6289446I-632J39994D01*
G75*
G01*
X11337006Y6289446D02*
G03*
X11337006Y6289434I39999J-6D01*
X11337005Y6289433D02*
G01*
X11337005Y6289471D01*
X11337005Y6289471D02*
G01*
X11337005Y6529478D01*
G75*
G01*
X11337006Y6529479D02*
G03*
X11297001Y6569479I-40000J0D01*
X11297000Y6569478D02*
G01*
X11017006Y6569478D01*
X11017006Y6569478D02*
G01*
X11017006Y6569496D01*
G75*
G01*
X11017006Y6569497D02*
G03*
X10977009Y6529497I3J-40000D01*
X10977008Y6529496D02*
G01*
X10977008Y6289446D01*
X10977008Y6289446D02*
G01*
X10977008Y6289446D01*
G75*
G01*
X12882004Y6289449D02*
G03*
X12922001Y6249449I40000J0D01*
X12922001Y6249449D02*
G01*
X12922001Y6249464D01*
X12922001Y6249464D02*
G01*
X13201995Y6249464D01*
G75*
G01*
X13201995Y6249464D02*
G03*
X13202633Y6249449I1275J39980D01*
X13202632Y6249449D02*
G01*
X13202632Y6249449D01*
G75*
G01*
X13202633Y6249449D02*
G03*
X13242000Y6289449I-632J39995D01*
G75*
G01*
X13242000Y6289449D02*
G03*
X13242000Y6289434I40000J-8D01*
X13242000Y6289433D02*
G01*
X13242000Y6289471D01*
X13242000Y6289471D02*
G01*
X13242000Y6529481D01*
G75*
G01*
X13242000Y6529481D02*
G03*
X13201995Y6569479I-39999J-2D01*
X13201995Y6569478D02*
G01*
X12922001Y6569478D01*
X12922001Y6569478D02*
G01*
X12922001Y6569494D01*
G75*
G01*
X12922001Y6569494D02*
G03*
X12882004Y6529499I3J-40000D01*
X12882003Y6529499D02*
G01*
X12882003Y6289448D01*
X12882003Y6289448D02*
G01*
X12882003Y6289448D01*
G75*
G01*
X14787489Y6288943D02*
G03*
X14827484Y6248946I40000J3D01*
X14827483Y6248946D02*
G01*
X14827483Y6248961D01*
X14827483Y6248961D02*
G01*
X15107480Y6248961D01*
G75*
G01*
X15107481Y6248961D02*
G03*
X15108118Y6248949I1115J39985D01*
X15108118Y6248948D02*
G01*
X15108118Y6248948D01*
G75*
G01*
X15108118Y6248949D02*
G03*
X15147488Y6288943I-630J39995D01*
G75*
G01*
X15147488Y6288943D02*
G03*
X15147488Y6288931I40000J-6D01*
X15147488Y6288930D02*
G01*
X15147488Y6288968D01*
X15147488Y6288968D02*
G01*
X15147488Y6528976D01*
G75*
G01*
X15147488Y6528976D02*
G03*
X15107481Y6568976I-40000J0D01*
X15107480Y6568975D02*
G01*
X14827483Y6568975D01*
X14827483Y6568975D02*
G01*
X14827483Y6568993D01*
G75*
G01*
X14827484Y6568994D02*
G03*
X14787489Y6528994I5J-40000D01*
X14787488Y6528993D02*
G01*
X14787488Y6288943D01*
X14787488Y6288943D02*
G01*
X14787488Y6288943D01*
G75*
G01*
X16691996Y6289449D02*
G03*
X16731993Y6249449I40000J0D01*
X16731993Y6249449D02*
G01*
X16731993Y6249466D01*
X16731993Y6249466D02*
G01*
X17011995Y6249466D01*
G75*
G01*
X17011995Y6249467D02*
G03*
X17012625Y6249454I1122J39984D01*
X17012625Y6249454D02*
G01*
X17012625Y6249454D01*
G75*
G01*
X17012625Y6249454D02*
G03*
X17051993Y6289449I-632J39995D01*
G75*
G01*
X17051993Y6289449D02*
G03*
X17051993Y6289434I40000J-8D01*
X17051992Y6289433D02*
G01*
X17051992Y6289474D01*
X17051992Y6289474D02*
G01*
X17051992Y6529481D01*
G75*
G01*
X17051993Y6529481D02*
G03*
X17011995Y6569479I-40000J-2D01*
X17011995Y6569478D02*
G01*
X16731993Y6569478D01*
X16731993Y6569478D02*
G01*
X16731993Y6569499D01*
G75*
G01*
X16731993Y6569499D02*
G03*
X16691996Y6529499I3J-40000D01*
X16691996Y6529499D02*
G01*
X16691996Y6289448D01*
X16691996Y6289448D02*
G01*
X16691996Y6289448D01*
G75*
G01*
X18596991Y6289449D02*
G03*
X18636988Y6249452I40000J2D01*
X18636988Y6249451D02*
G01*
X18636988Y6249466D01*
X18636988Y6249466D02*
G01*
X18916982Y6249466D01*
G75*
G01*
X18916983Y6249467D02*
G03*
X18917620Y6249452I1274J39979D01*
X18917620Y6249451D02*
G01*
X18917620Y6249451D01*
G75*
G01*
X18917620Y6249452D02*
G03*
X18956988Y6289449I-632J39994D01*
G75*
G01*
X18956988Y6289449D02*
G03*
X18956988Y6289434I40000J-8D01*
X18956987Y6289433D02*
G01*
X18956987Y6289474D01*
X18956987Y6289474D02*
G01*
X18956987Y6529481D01*
G75*
G01*
X18956988Y6529481D02*
G03*
X18916983Y6569479I-40000J-2D01*
X18916982Y6569478D02*
G01*
X18636988Y6569478D01*
X18636988Y6569478D02*
G01*
X18636988Y6569496D01*
G75*
G01*
X18636988Y6569497D02*
G03*
X18596991Y6529497I3J-40000D01*
X18596991Y6529496D02*
G01*
X18596991Y6289448D01*
X18596991Y6289448D02*
G01*
X18596991Y6289448D01*
G75*
G01*
X21692459Y6289939D02*
G03*
X21732453Y6249937I39999J-2D01*
X21732453Y6249936D02*
G01*
X21732453Y6249954D01*
X21732453Y6249954D02*
G01*
X22012447Y6249954D01*
G75*
G01*
X22012448Y6249954D02*
G03*
X22013088Y6249937I1430J39975D01*
X22013087Y6249936D02*
G01*
X22013087Y6249936D01*
G75*
G01*
X22013088Y6249937D02*
G03*
X22052455Y6289939I-633J39995D01*
G75*
G01*
X22052455Y6289939D02*
G03*
X22052455Y6289921I40000J-9D01*
X22052455Y6289921D02*
G01*
X22052455Y6289962D01*
X22052455Y6289962D02*
G01*
X22052455Y6529971D01*
G75*
G01*
X22052455Y6529972D02*
G03*
X22012448Y6569967I-40000J-5D01*
X22012447Y6569966D02*
G01*
X21732453Y6569966D01*
X21732453Y6569966D02*
G01*
X21732453Y6569984D01*
G75*
G01*
X21732453Y6569984D02*
G03*
X21692459Y6529982I5J-40000D01*
X21692458Y6529981D02*
G01*
X21692458Y6289939D01*
X21692458Y6289939D02*
G01*
X21692458Y6289939D01*
G75*
G01*
X1692026Y4384449D02*
G03*
X1732026Y4344454I40000J5D01*
X1732026Y4344454D02*
G01*
X1732026Y4344471D01*
X1732026Y4344471D02*
G01*
X2011989Y4344471D01*
G75*
G01*
X2011990Y4344472D02*
G03*
X2012620Y4344454I1443J39974D01*
X2012619Y4344454D02*
G01*
X2012619Y4344454D01*
G75*
G01*
X2012620Y4344454D02*
G03*
X2051987Y4384449I-633J39995D01*
G75*
G01*
X2051987Y4384449D02*
G03*
X2051987Y4384439I40000J-5D01*
X2051987Y4384438D02*
G01*
X2051987Y4384479D01*
X2051987Y4384479D02*
G01*
X2051987Y4624481D01*
G75*
G01*
X2051987Y4624481D02*
G03*
X2011990Y4664484I-40000J3D01*
X2011989Y4664483D02*
G01*
X1732026Y4664483D01*
X1732026Y4664483D02*
G01*
X1732026Y4664501D01*
G75*
G01*
X1732026Y4664502D02*
G03*
X1692026Y4624499I0J-40000D01*
X1692026Y4624499D02*
G01*
X1692026Y4384448D01*
X1692026Y4384448D02*
G01*
X1692026Y4384448D01*
G75*
G01*
X4311023Y4384454D02*
G03*
X4351020Y4344454I40000J0D01*
X4351020Y4344454D02*
G01*
X4351020Y4344471D01*
X4351020Y4344471D02*
G01*
X4631014Y4344471D01*
G75*
G01*
X4631014Y4344472D02*
G03*
X4631652Y4344459I1116J39984D01*
X4631651Y4344459D02*
G01*
X4631651Y4344459D01*
G75*
G01*
X4631652Y4344459D02*
G03*
X4671019Y4384454I-633J39995D01*
G75*
G01*
X4671019Y4384454D02*
G03*
X4671019Y4384439I40000J-8D01*
X4671019Y4384438D02*
G01*
X4671019Y4384479D01*
X4671019Y4384479D02*
G01*
X4671019Y4624486D01*
G75*
G01*
X4671019Y4624487D02*
G03*
X4631014Y4664484I-40000J-3D01*
X4631014Y4664483D02*
G01*
X4351020Y4664483D01*
X4351020Y4664483D02*
G01*
X4351020Y4664504D01*
G75*
G01*
X4351020Y4664504D02*
G03*
X4311023Y4624504I3J-40000D01*
X4311022Y4624504D02*
G01*
X4311022Y4384454D01*
X4311022Y4384454D02*
G01*
X4311022Y4384454D01*
G75*
G01*
X6216023Y4384451D02*
G03*
X6256020Y4344454I40000J3D01*
X6256020Y4344454D02*
G01*
X6256020Y4344469D01*
X6256020Y4344469D02*
G01*
X6536014Y4344469D01*
G75*
G01*
X6536014Y4344469D02*
G03*
X6536652Y4344457I1116J39985D01*
X6536651Y4344456D02*
G01*
X6536651Y4344456D01*
G75*
G01*
X6536652Y4344457D02*
G03*
X6576019Y4384451I-633J39995D01*
G75*
G01*
X6576019Y4384451D02*
G03*
X6576019Y4384439I40000J-6D01*
X6576019Y4384438D02*
G01*
X6576019Y4384476D01*
X6576019Y4384476D02*
G01*
X6576019Y4624484D01*
G75*
G01*
X6576019Y4624484D02*
G03*
X6536014Y4664484I-40000J0D01*
X6536014Y4664483D02*
G01*
X6256020Y4664483D01*
X6256020Y4664483D02*
G01*
X6256020Y4664501D01*
G75*
G01*
X6256020Y4664502D02*
G03*
X6216023Y4624502I3J-40000D01*
X6216022Y4624501D02*
G01*
X6216022Y4384451D01*
X6216022Y4384451D02*
G01*
X6216022Y4384451D01*
G75*
G01*
X8121015Y4384449D02*
G03*
X8161012Y4344454I40000J5D01*
X8161012Y4344454D02*
G01*
X8161012Y4344466D01*
X8161012Y4344466D02*
G01*
X8441006Y4344466D01*
G75*
G01*
X8441007Y4344467D02*
G03*
X8441644Y4344454I1115J39984D01*
X8441644Y4344454D02*
G01*
X8441644Y4344454D01*
G75*
G01*
X8441644Y4344454D02*
G03*
X8481012Y4384449I-632J39995D01*
G75*
G01*
X8481012Y4384449D02*
G03*
X8481012Y4384439I40000J-5D01*
X8481011Y4384438D02*
G01*
X8481011Y4384471D01*
X8481011Y4384471D02*
G01*
X8481011Y4624481D01*
G75*
G01*
X8481012Y4624481D02*
G03*
X8441007Y4664484I-40000J3D01*
X8441006Y4664483D02*
G01*
X8161012Y4664483D01*
X8161012Y4664483D02*
G01*
X8161012Y4664496D01*
G75*
G01*
X8161012Y4664497D02*
G03*
X8121015Y4624499I3J-40000D01*
X8121015Y4624499D02*
G01*
X8121015Y4384448D01*
X8121015Y4384448D02*
G01*
X8121015Y4384448D01*
G75*
G01*
X10026010Y4384451D02*
G03*
X10066005Y4344454I40000J3D01*
X10066004Y4344454D02*
G01*
X10066004Y4344469D01*
X10066004Y4344469D02*
G01*
X10345999Y4344469D01*
G75*
G01*
X10345999Y4344469D02*
G03*
X10346639Y4344457I1114J39985D01*
X10346639Y4344456D02*
G01*
X10346639Y4344456D01*
G75*
G01*
X10346639Y4344457D02*
G03*
X10386007Y4384451I-632J39995D01*
G75*
G01*
X10386007Y4384451D02*
G03*
X10386007Y4384439I40000J-6D01*
X10386006Y4384438D02*
G01*
X10386006Y4384476D01*
X10386006Y4384476D02*
G01*
X10386006Y4624484D01*
G75*
G01*
X10386007Y4624484D02*
G03*
X10345999Y4664484I-40000J0D01*
X10345999Y4664483D02*
G01*
X10066004Y4664483D01*
X10066004Y4664483D02*
G01*
X10066004Y4664501D01*
G75*
G01*
X10066005Y4664502D02*
G03*
X10026010Y4624502I5J-40000D01*
X10026009Y4624501D02*
G01*
X10026009Y4384451D01*
X10026009Y4384451D02*
G01*
X10026009Y4384451D01*
G75*
G01*
X11931007Y4384449D02*
G03*
X11971002Y4344454I40000J5D01*
X11971002Y4344454D02*
G01*
X11971002Y4344466D01*
X11971002Y4344466D02*
G01*
X12250996Y4344466D01*
G75*
G01*
X12250997Y4344467D02*
G03*
X12251637Y4344454I1113J39984D01*
X12251636Y4344454D02*
G01*
X12251636Y4344454D01*
G75*
G01*
X12251637Y4344454D02*
G03*
X12291004Y4384449I-633J39995D01*
G75*
G01*
X12291004Y4384449D02*
G03*
X12291004Y4384439I40000J-5D01*
X12291004Y4384438D02*
G01*
X12291004Y4384474D01*
X12291004Y4384474D02*
G01*
X12291004Y4624481D01*
G75*
G01*
X12291004Y4624481D02*
G03*
X12250997Y4664484I-40000J3D01*
X12250996Y4664483D02*
G01*
X11971002Y4664483D01*
X11971002Y4664483D02*
G01*
X11971002Y4664501D01*
G75*
G01*
X11971002Y4664502D02*
G03*
X11931007Y4624499I5J-40000D01*
X11931007Y4624499D02*
G01*
X11931007Y4384448D01*
X11931007Y4384448D02*
G01*
X11931007Y4384448D01*
G75*
G01*
X13836485Y4383949D02*
G03*
X13876480Y4343951I40000J2D01*
X13876479Y4343951D02*
G01*
X13876479Y4343966D01*
X13876479Y4343966D02*
G01*
X14156474Y4343966D01*
G75*
G01*
X14156474Y4343966D02*
G03*
X14157114Y4343954I1114J39985D01*
X14157114Y4343953D02*
G01*
X14157114Y4343953D01*
G75*
G01*
X14157114Y4343954D02*
G03*
X14196482Y4383949I-632J39995D01*
G75*
G01*
X14196482Y4383949D02*
G03*
X14196482Y4383936I40000J-7D01*
X14196481Y4383935D02*
G01*
X14196481Y4383973D01*
X14196481Y4383973D02*
G01*
X14196481Y4623983D01*
G75*
G01*
X14196482Y4623984D02*
G03*
X14156474Y4663981I-40000J-3D01*
X14156474Y4663981D02*
G01*
X13876479Y4663981D01*
X13876479Y4663981D02*
G01*
X13876479Y4663998D01*
G75*
G01*
X13876480Y4663999D02*
G03*
X13836485Y4623999I5J-40000D01*
X13836484Y4623998D02*
G01*
X13836484Y4383948D01*
X13836484Y4383948D02*
G01*
X13836484Y4383948D01*
G75*
G01*
X15741480Y4383949D02*
G03*
X15781477Y4343951I40000J2D01*
X15781477Y4343951D02*
G01*
X15781477Y4343966D01*
X15781477Y4343966D02*
G01*
X16061471Y4343966D01*
G75*
G01*
X16061472Y4343966D02*
G03*
X16062109Y4343954I1115J39985D01*
X16062109Y4343953D02*
G01*
X16062109Y4343953D01*
G75*
G01*
X16062109Y4343954D02*
G03*
X16101474Y4383949I-635J39995D01*
G75*
G01*
X16101474Y4383949D02*
G03*
X16101474Y4383936I40000J-7D01*
X16101474Y4383935D02*
G01*
X16101474Y4383973D01*
X16101474Y4383973D02*
G01*
X16101474Y4623981D01*
G75*
G01*
X16101474Y4623981D02*
G03*
X16061472Y4663981I-40000J0D01*
X16061471Y4663981D02*
G01*
X15781477Y4663981D01*
X15781477Y4663981D02*
G01*
X15781477Y4663998D01*
G75*
G01*
X15781477Y4663999D02*
G03*
X15741480Y4623999I3J-40000D01*
X15741479Y4623998D02*
G01*
X15741479Y4383948D01*
X15741479Y4383948D02*
G01*
X15741479Y4383948D01*
G75*
G01*
X18122483Y4384441D02*
G03*
X18162478Y4344444I40000J3D01*
X18162478Y4344443D02*
G01*
X18162478Y4344459D01*
X18162478Y4344459D02*
G01*
X18442472Y4344459D01*
G75*
G01*
X18442473Y4344459D02*
G03*
X18443113Y4344446I1113J39985D01*
X18443112Y4344446D02*
G01*
X18443112Y4344446D01*
G75*
G01*
X18443113Y4344446D02*
G03*
X18482480Y4384441I-633J39995D01*
G75*
G01*
X18482480Y4384441D02*
G03*
X18482480Y4384429I40000J-6D01*
X18482480Y4384428D02*
G01*
X18482480Y4384466D01*
X18482480Y4384466D02*
G01*
X18482480Y4624473D01*
G75*
G01*
X18482480Y4624474D02*
G03*
X18442473Y4664474I-40000J0D01*
X18442472Y4664473D02*
G01*
X18162478Y4664473D01*
X18162478Y4664473D02*
G01*
X18162478Y4664491D01*
G75*
G01*
X18162478Y4664492D02*
G03*
X18122483Y4624492I5J-40000D01*
X18122483Y4624491D02*
G01*
X18122483Y4384441D01*
X18122483Y4384441D02*
G01*
X18122483Y4384441D01*
G75*
G01*
X20978965Y4384962D02*
G03*
X21018962Y4344967I40000J5D01*
X21018962Y4344967D02*
G01*
X21018962Y4344979D01*
X21018962Y4344979D02*
G01*
X21298956Y4344979D01*
G75*
G01*
X21298957Y4344980D02*
G03*
X21299594Y4344972I796J39992D01*
X21299594Y4344972D02*
G01*
X21299594Y4344972D01*
G75*
G01*
X21299594Y4344972D02*
G03*
X21338962Y4384962I-632J39995D01*
G75*
G01*
X21338962Y4384962D02*
G03*
X21338962Y4384952I40000J-5D01*
X21338961Y4384951D02*
G01*
X21338961Y4384987D01*
X21338961Y4384987D02*
G01*
X21338961Y4624994D01*
G75*
G01*
X21338962Y4624995D02*
G03*
X21298957Y4664997I-40000J2D01*
X21298956Y4664997D02*
G01*
X21018962Y4664997D01*
X21018962Y4664997D02*
G01*
X21018962Y4665014D01*
G75*
G01*
X21018962Y4665015D02*
G03*
X20978965Y4625012I3J-40000D01*
X20978964Y4625012D02*
G01*
X20978964Y4384962D01*
X20978964Y4384962D02*
G01*
X20978964Y4384962D01*
G75*
G01*
X22883985Y4384441D02*
G03*
X22923983Y4344444I40000J3D01*
X22923982Y4344443D02*
G01*
X22923982Y4344461D01*
X22923982Y4344461D02*
G01*
X23203974Y4344461D01*
G75*
G01*
X23203974Y4344462D02*
G03*
X23204615Y4344444I1431J39974D01*
X23204614Y4344443D02*
G01*
X23204614Y4344443D01*
G75*
G01*
X23204615Y4344444D02*
G03*
X23243982Y4384441I-633J39995D01*
G75*
G01*
X23243982Y4384441D02*
G03*
X23243982Y4384429I40000J-6D01*
X23243981Y4384428D02*
G01*
X23243981Y4384469D01*
X23243981Y4384469D02*
G01*
X23243981Y4624473D01*
G75*
G01*
X23243982Y4624474D02*
G03*
X23203974Y4664474I-40000J0D01*
X23203974Y4664473D02*
G01*
X22923982Y4664473D01*
X22923982Y4664473D02*
G01*
X22923982Y4664491D01*
G75*
G01*
X22923983Y4664492D02*
G03*
X22883985Y4624489I2J-40000D01*
X22883985Y4624489D02*
G01*
X22883985Y4384441D01*
X22883985Y4384441D02*
G01*
X22883985Y4384441D01*
G75*
G01*
X1213536Y2477892D02*
G03*
X1253533Y2437895I40000J2D01*
X1253533Y2437894D02*
G01*
X1253533Y2437909D01*
X1253533Y2437909D02*
G01*
X1533527Y2437909D01*
G75*
G01*
X1533528Y2437910D02*
G03*
X1534165Y2437897I1115J39984D01*
X1534165Y2437897D02*
G01*
X1534165Y2437897D01*
G75*
G01*
X1534165Y2437897D02*
G03*
X1573533Y2477892I-632J39995D01*
G75*
G01*
X1573533Y2477892D02*
G03*
X1573533Y2477879I39999J-6D01*
X1573532Y2477879D02*
G01*
X1573532Y2477917D01*
X1573532Y2477917D02*
G01*
X1573532Y2717924D01*
G75*
G01*
X1573533Y2717924D02*
G03*
X1533528Y2757924I-40000J0D01*
X1533527Y2757924D02*
G01*
X1253533Y2757924D01*
X1253533Y2757924D02*
G01*
X1253533Y2757942D01*
G75*
G01*
X1253533Y2757942D02*
G03*
X1213536Y2717942I3J-40000D01*
X1213535Y2717942D02*
G01*
X1213535Y2477891D01*
X1213535Y2477891D02*
G01*
X1213535Y2477891D01*
G75*
G01*
X3594532Y2476944D02*
G03*
X3634527Y2436950I40000J6D01*
X3634526Y2436949D02*
G01*
X3634526Y2436959D01*
X3634526Y2436959D02*
G01*
X3914520Y2436959D01*
G75*
G01*
X3914521Y2436960D02*
G03*
X3915161Y2436950I955J39988D01*
X3915161Y2436949D02*
G01*
X3915161Y2436949D01*
G75*
G01*
X3915161Y2436950D02*
G03*
X3954529Y2476944I-632J39995D01*
G75*
G01*
X3954529Y2476944D02*
G03*
X3954529Y2476934I39999J-5D01*
X3954528Y2476934D02*
G01*
X3954528Y2476972D01*
X3954528Y2476972D02*
G01*
X3954528Y2716977D01*
G75*
G01*
X3954529Y2716977D02*
G03*
X3914521Y2756980I-40000J3D01*
X3914520Y2756979D02*
G01*
X3634526Y2756979D01*
X3634526Y2756979D02*
G01*
X3634526Y2756994D01*
G75*
G01*
X3634527Y2756995D02*
G03*
X3594532Y2716995I5J-40000D01*
X3594531Y2716994D02*
G01*
X3594531Y2476944D01*
X3594531Y2476944D02*
G01*
X3594531Y2476944D01*
G75*
G01*
X5738002Y2478844D02*
G03*
X5778002Y2438850I40000J5D01*
X5778002Y2438849D02*
G01*
X5778002Y2438862D01*
X5778002Y2438862D02*
G01*
X6057996Y2438862D01*
G75*
G01*
X6057997Y2438862D02*
G03*
X6058632Y2438850I1117J39985D01*
X6058631Y2438849D02*
G01*
X6058631Y2438849D01*
G75*
G01*
X6058632Y2438850D02*
G03*
X6097999Y2478844I-633J39994D01*
G75*
G01*
X6097999Y2478844D02*
G03*
X6097999Y2478834I40000J-5D01*
X6097998Y2478834D02*
G01*
X6097998Y2478869D01*
X6097998Y2478869D02*
G01*
X6097998Y2718876D01*
G75*
G01*
X6097999Y2718877D02*
G03*
X6057997Y2758879I-40000J3D01*
X6057996Y2758879D02*
G01*
X5778002Y2758879D01*
X5778002Y2758879D02*
G01*
X5778002Y2758897D01*
G75*
G01*
X5778002Y2758897D02*
G03*
X5738002Y2718895I0J-40000D01*
X5738002Y2718894D02*
G01*
X5738002Y2478844D01*
X5738002Y2478844D02*
G01*
X5738002Y2478844D01*
G75*
G01*
X8833498Y2479451D02*
G03*
X8873503Y2439452I40000J0D01*
X8873502Y2439451D02*
G01*
X8873502Y2439469D01*
X8873502Y2439469D02*
G01*
X9153497Y2439469D01*
G75*
G01*
X9153497Y2439469D02*
G03*
X9154127Y2439457I1121J39985D01*
X9154126Y2439456D02*
G01*
X9154126Y2439456D01*
G75*
G01*
X9154127Y2439457D02*
G03*
X9193494Y2479451I-632J39995D01*
G75*
G01*
X9193494Y2479451D02*
G03*
X9193494Y2479436I40000J-7D01*
X9193494Y2479436D02*
G01*
X9193494Y2479474D01*
X9193494Y2479474D02*
G01*
X9193494Y2719484D01*
G75*
G01*
X9193494Y2719484D02*
G03*
X9153497Y2759481I-39999J-3D01*
X9153497Y2759481D02*
G01*
X8873502Y2759481D01*
X8873502Y2759481D02*
G01*
X8873502Y2759504D01*
G75*
G01*
X8873503Y2759504D02*
G03*
X8833498Y2719502I-5J-40000D01*
X8833497Y2719501D02*
G01*
X8833497Y2479451D01*
X8833497Y2479451D02*
G01*
X8833497Y2479451D01*
G75*
G01*
X13595998Y2479454D02*
G03*
X13635995Y2439457I40000J3D01*
X13635995Y2439456D02*
G01*
X13635995Y2439471D01*
X13635995Y2439471D02*
G01*
X13915986Y2439471D01*
G75*
G01*
X13915987Y2439472D02*
G03*
X13916627Y2439459I1113J39984D01*
X13916626Y2439459D02*
G01*
X13916626Y2439459D01*
G75*
G01*
X13916627Y2439459D02*
G03*
X13955994Y2479454I-632J39995D01*
G75*
G01*
X13955994Y2479454D02*
G03*
X13955994Y2479441I40000J-6D01*
X13955994Y2479441D02*
G01*
X13955994Y2479479D01*
X13955994Y2479479D02*
G01*
X13955994Y2719486D01*
G75*
G01*
X13955994Y2719487D02*
G03*
X13915987Y2759486I-39999J0D01*
X13915986Y2759486D02*
G01*
X13635995Y2759486D01*
X13635995Y2759486D02*
G01*
X13635995Y2759504D01*
G75*
G01*
X13635995Y2759504D02*
G03*
X13595998Y2719504I3J-40000D01*
X13595997Y2719504D02*
G01*
X13595997Y2479454D01*
X13595997Y2479454D02*
G01*
X13595997Y2479454D01*
G75*
G01*
X17167997Y2479451D02*
G03*
X17207995Y2439454I40000J3D01*
X17207994Y2439454D02*
G01*
X17207994Y2439469D01*
X17207994Y2439469D02*
G01*
X17487988Y2439469D01*
G75*
G01*
X17487989Y2439469D02*
G03*
X17488626Y2439459I956J39989D01*
X17488626Y2439459D02*
G01*
X17488626Y2439459D01*
G75*
G01*
X17488626Y2439459D02*
G03*
X17527994Y2479451I-632J39995D01*
G75*
G01*
X17527994Y2479451D02*
G03*
X17527994Y2479439I40000J-6D01*
X17527993Y2479438D02*
G01*
X17527993Y2479476D01*
X17527993Y2479476D02*
G01*
X17527993Y2719484D01*
G75*
G01*
X17527994Y2719484D02*
G03*
X17487989Y2759484I-40000J0D01*
X17487988Y2759483D02*
G01*
X17207994Y2759483D01*
X17207994Y2759483D02*
G01*
X17207994Y2759501D01*
G75*
G01*
X17207995Y2759502D02*
G03*
X17167997Y2719504I2J-40000D01*
X17167997Y2719504D02*
G01*
X17167997Y2479451D01*
X17167997Y2479451D02*
G01*
X17167997Y2479451D01*
G75*
G01*
X19073480Y2479451D02*
G03*
X19113477Y2439454I40000J3D01*
X19113477Y2439454D02*
G01*
X19113477Y2439469D01*
X19113477Y2439469D02*
G01*
X19393471Y2439469D01*
G75*
G01*
X19393472Y2439469D02*
G03*
X19394109Y2439457I1115J39985D01*
X19394109Y2439456D02*
G01*
X19394109Y2439456D01*
G75*
G01*
X19394109Y2439457D02*
G03*
X19433476Y2479451I-632J39995D01*
G75*
G01*
X19433476Y2479451D02*
G03*
X19433476Y2479439I40000J-6D01*
X19433476Y2479438D02*
G01*
X19433476Y2479476D01*
X19433476Y2479476D02*
G01*
X19433476Y2719484D01*
G75*
G01*
X19433476Y2719484D02*
G03*
X19393472Y2759484I-39999J0D01*
X19393471Y2759483D02*
G01*
X19113477Y2759483D01*
X19113477Y2759483D02*
G01*
X19113477Y2759501D01*
G75*
G01*
X19113477Y2759502D02*
G03*
X19073480Y2719502I3J-40000D01*
X19073479Y2719501D02*
G01*
X19073479Y2479451D01*
X19073479Y2479451D02*
G01*
X19073479Y2479451D01*
G75*
G01*
X20978495Y2479457D02*
G03*
X21018490Y2439457I40000J0D01*
X21018489Y2439456D02*
G01*
X21018489Y2439471D01*
X21018489Y2439471D02*
G01*
X21298484Y2439471D01*
G75*
G01*
X21298484Y2439472D02*
G03*
X21299124Y2439462I955J39988D01*
X21299124Y2439461D02*
G01*
X21299124Y2439461D01*
G75*
G01*
X21299124Y2439462D02*
G03*
X21338492Y2479457I-632J39995D01*
G75*
G01*
X21338492Y2479457D02*
G03*
X21338492Y2479441I40000J-8D01*
X21338491Y2479441D02*
G01*
X21338491Y2479479D01*
X21338491Y2479479D02*
G01*
X21338491Y2719489D01*
G75*
G01*
X21338492Y2719489D02*
G03*
X21298484Y2759486I-40000J-2D01*
X21298484Y2759486D02*
G01*
X21018489Y2759486D01*
X21018489Y2759486D02*
G01*
X21018489Y2759504D01*
G75*
G01*
X21018490Y2759504D02*
G03*
X20978495Y2719507I5J-40000D01*
X20978495Y2719506D02*
G01*
X20978495Y2479456D01*
X20978495Y2479456D02*
G01*
X20978495Y2479456D01*
G75*
G01*
X22883459Y2479469D02*
G03*
X22923457Y2439474I40000J5D01*
X22923456Y2439474D02*
G01*
X22923456Y2439484D01*
X22923456Y2439484D02*
G01*
X23203451Y2439484D01*
G75*
G01*
X23203451Y2439485D02*
G03*
X23204089Y2439474I956J39988D01*
X23204088Y2439474D02*
G01*
X23204088Y2439474D01*
G75*
G01*
X23204089Y2439474D02*
G03*
X23243456Y2479469I-633J39995D01*
G75*
G01*
X23243456Y2479469D02*
G03*
X23243456Y2479459I40000J-5D01*
X23243456Y2479459D02*
G01*
X23243456Y2479492D01*
X23243456Y2479492D02*
G01*
X23243456Y2719501D01*
G75*
G01*
X23243456Y2719502D02*
G03*
X23203451Y2759504I-40000J2D01*
X23203451Y2759504D02*
G01*
X22923456Y2759504D01*
X22923456Y2759504D02*
G01*
X22923456Y2759516D01*
G75*
G01*
X22923457Y2759517D02*
G03*
X22883459Y2719520I2J-40000D01*
X22883459Y2719519D02*
G01*
X22883459Y2479469D01*
X22883459Y2479469D02*
G01*
X22883459Y2479469D01*

%LPD*%
M02*
