G04 Layer: BottomSolderMaskLayer*
G04 EasyEDA v6.5.42, 2024-05-12 21:06:32*
G04 fdf4e44396eb4d6a93e1883587b5baf6,156c37ef0924441e834bf69462bb4c55,10*
G04 Gerber Generator version 0.2*
G04 Scale: 100 percent, Rotated: No, Reflected: No *
G04 Dimensions in millimeters *
G04 leading zeros omitted , absolute positions ,4 integer and 5 decimal *
%FSLAX45Y45*%
%MOMM*%

%AMMACRO1*1,1,$1,$2,$3*1,1,$1,$4,$5*1,1,$1,0-$2,0-$3*1,1,$1,0-$4,0-$5*20,1,$1,$2,$3,$4,$5,0*20,1,$1,$4,$5,0-$2,0-$3,0*20,1,$1,0-$2,0-$3,0-$4,0-$5,0*20,1,$1,0-$4,0-$5,$2,$3,0*4,1,4,$2,$3,$4,$5,0-$2,0-$3,0-$4,0-$5,$2,$3,0*%
%AMMACRO2*1,1,$1,$2,$3*1,1,$1,$4,$5*20,1,$1,$2,$3,$4,$5,0*%
%ADD10C,0.8886*%
%ADD11MACRO1,0.1016X-0.5X-0.375X0.5X-0.375*%
%ADD12MACRO1,0.1016X0.5X0.375X-0.5X0.375*%
%ADD13R,0.6416X0.8917*%
%ADD14MACRO1,0.1016X-0.395X0.27X-0.395X-0.27*%
%ADD15MACRO1,0.1016X-0.395X-0.27X-0.395X0.27*%
%ADD16MACRO1,0.1X-0.15X-0.475X0.15X-0.475*%
%ADD17MACRO1,0.1X-0.15X-0.475X0.1498X-0.475*%
%ADD18MACRO1,0.1X-0.1501X-0.475X0.1501X-0.475*%
%ADD19MACRO1,0.1X-0.15X-0.4749X0.1498X-0.4749*%
%ADD20MACRO1,0.1X-0.15X-0.4749X0.15X-0.4749*%
%ADD21MACRO1,0.1X-0.1499X-0.4749X0.1499X-0.4749*%
%ADD22MACRO1,0.1X-0.15X-0.4749X0.1499X-0.4749*%
%ADD23O,1.7015968000000001X2.4015954*%
%ADD24O,1.0999978000000001X2.3999952*%
%ADD25MACRO1,0.1016X0.3999X0.45X-0.3999X0.45*%
%ADD26MACRO1,0.1016X0.4X0.45X-0.4X0.45*%
%ADD27MACRO1,0.1016X0.4033X-0.432X0.4033X0.432*%
%ADD28MACRO1,0.1016X-0.4032X-0.432X-0.4032X0.432*%
%ADD29MACRO1,0.1016X-0.4X-0.45X0.4X-0.45*%
%ADD30MACRO1,0.1016X0.4032X-0.432X0.4032X0.432*%
%ADD31MACRO1,0.1016X0.7X0.6X-0.7X0.6*%
%ADD32MACRO1,0.1016X0.45X-0.4X0.45X0.4*%
%ADD33MACRO1,0.1016X0.75X0.41X0.75X-0.41*%
%ADD34MACRO1,0.1016X0.5X-0.55X0.5X0.55*%
%ADD35MACRO1,0.1016X0.7501X0.41X0.7501X-0.41*%
%ADD36MACRO1,0.1016X0.7499X0.41X0.7499X-0.41*%
%ADD37MACRO1,0.1016X0.45X-0.3999X0.45X0.3999*%
%ADD38MACRO1,0.1016X0.5X-0.5501X0.5X0.5501*%
%ADD39MACRO1,0.1016X0.7501X0.4101X0.7501X-0.4101*%
%ADD40MACRO1,0.1016X0.7499X0.4101X0.7499X-0.4101*%
%ADD41C,1.0926*%
%ADD42MACRO2,0.5516X-0.4243X-0.4243X0.4243X0.4243*%
%ADD43MACRO2,0.5516X-0.4243X0.4243X0.4243X-0.4243*%
%ADD44C,2.3016*%
%ADD45C,4.4032*%
%ADD46C,4.3016*%
%ADD47C,0.0115*%

%LPD*%
D10*
G01*
X12139980Y3949496D03*
G01*
X10703991Y3947972D03*
G01*
X10209987Y2984931D03*
G01*
X12589967Y2986481D03*
D11*
G01*
X15663727Y2994992D03*
G01*
X15429222Y2994992D03*
D12*
G01*
X15419210Y2801995D03*
G01*
X15653715Y2801995D03*
D13*
G01*
X8515477Y3974490D03*
G01*
X8515477Y4083507D03*
D14*
G01*
X9506986Y3988989D03*
D15*
G01*
X9397974Y3989002D03*
D16*
G01*
X20999463Y9099685D03*
G01*
X21049463Y9099685D03*
D17*
G01*
X21099476Y9099685D03*
D16*
G01*
X21149453Y9099685D03*
G01*
X21199443Y9099685D03*
D18*
G01*
X21249454Y9099685D03*
D16*
G01*
X21299432Y9099685D03*
G01*
X21349455Y9099685D03*
G01*
X21399445Y9099685D03*
D18*
G01*
X21449456Y9099685D03*
D16*
G01*
X21499435Y9099685D03*
G01*
X21549457Y9099685D03*
D19*
G01*
X21524470Y9239662D03*
D20*
G01*
X21474450Y9239662D03*
G01*
X21424458Y9239662D03*
D21*
G01*
X21374449Y9239662D03*
D20*
G01*
X21324468Y9239662D03*
D22*
G01*
X21274453Y9239662D03*
D20*
G01*
X21224433Y9239662D03*
D19*
G01*
X21174458Y9239662D03*
D20*
G01*
X21124466Y9239662D03*
G01*
X21074451Y9239662D03*
G01*
X21024453Y9239662D03*
G01*
X20974456Y9239662D03*
D23*
G01*
X21667927Y9162262D03*
D24*
G01*
X20829930Y9617252D03*
G01*
X21693962Y9617252D03*
D23*
G01*
X20855940Y9162262D03*
D25*
G01*
X11505976Y4058993D03*
D26*
G01*
X11645977Y4058993D03*
D27*
G01*
X15470149Y3178493D03*
D28*
G01*
X15620799Y3178493D03*
D27*
G01*
X15470148Y3347993D03*
D28*
G01*
X15620795Y3347993D03*
D27*
G01*
X15467142Y3518993D03*
D28*
G01*
X15617793Y3518993D03*
D29*
G01*
X21362955Y8237481D03*
G01*
X21222954Y8237481D03*
G01*
X21363456Y8043481D03*
G01*
X21223455Y8043481D03*
D27*
G01*
X21223133Y8587484D03*
D28*
G01*
X21373781Y8587484D03*
D30*
G01*
X21224636Y8417985D03*
D28*
G01*
X21375286Y8417985D03*
D31*
G01*
X9020484Y3939503D03*
G01*
X8800486Y3939503D03*
G01*
X8800486Y4114510D03*
G01*
X9020484Y4114505D03*
D32*
G01*
X1685851Y8458579D03*
G01*
X1685851Y8318582D03*
D33*
G01*
X876207Y8389592D03*
G01*
X876207Y8239580D03*
G01*
X1436207Y8239580D03*
G01*
X1436207Y8389592D03*
D34*
G01*
X415209Y8775080D03*
G01*
X415209Y8428089D03*
D32*
G01*
X3591130Y8458478D03*
G01*
X3591130Y8318480D03*
D33*
G01*
X2781486Y8389490D03*
G01*
X2781486Y8239479D03*
G01*
X3341486Y8239479D03*
G01*
X3341486Y8389490D03*
D34*
G01*
X2320489Y8774978D03*
G01*
X2320489Y8427987D03*
D32*
G01*
X5496128Y8458478D03*
G01*
X5496128Y8318480D03*
D33*
G01*
X4686484Y8389490D03*
G01*
X4686484Y8239479D03*
G01*
X5246484Y8239479D03*
G01*
X5246484Y8389490D03*
D34*
G01*
X4225486Y8774978D03*
G01*
X4225486Y8427987D03*
D32*
G01*
X7400627Y8457484D03*
G01*
X7400627Y8317487D03*
D33*
G01*
X6590983Y8388497D03*
G01*
X6590983Y8238486D03*
G01*
X7150983Y8238486D03*
G01*
X7150983Y8388497D03*
D34*
G01*
X6129986Y8773985D03*
G01*
X6129986Y8426994D03*
D32*
G01*
X9306120Y8456979D03*
G01*
X9306120Y8316982D03*
D33*
G01*
X8496476Y8387991D03*
G01*
X8496476Y8237980D03*
G01*
X9056476Y8237980D03*
G01*
X9056476Y8387991D03*
D34*
G01*
X8035479Y8773480D03*
G01*
X8035479Y8426489D03*
D32*
G01*
X11211115Y8456979D03*
G01*
X11211115Y8316982D03*
D33*
G01*
X10401471Y8387991D03*
G01*
X10401471Y8237980D03*
G01*
X10961471Y8237980D03*
G01*
X10961471Y8387991D03*
D34*
G01*
X9940474Y8773480D03*
G01*
X9940474Y8426489D03*
D32*
G01*
X13115615Y8458986D03*
G01*
X13115615Y8318988D03*
D33*
G01*
X12305971Y8389998D03*
G01*
X12305971Y8239987D03*
G01*
X12865971Y8239987D03*
G01*
X12865971Y8389998D03*
D34*
G01*
X11844973Y8775486D03*
G01*
X11844973Y8428495D03*
D32*
G01*
X15020117Y8457959D03*
G01*
X15020117Y8317962D03*
D33*
G01*
X14210473Y8388972D03*
G01*
X14210473Y8238961D03*
G01*
X14770473Y8238961D03*
G01*
X14770473Y8388972D03*
D34*
G01*
X13749475Y8774460D03*
G01*
X13749475Y8427469D03*
D32*
G01*
X16925607Y8458986D03*
G01*
X16925607Y8318988D03*
D33*
G01*
X16115963Y8389998D03*
G01*
X16115963Y8239987D03*
G01*
X16675963Y8239987D03*
G01*
X16675963Y8389998D03*
D34*
G01*
X15654966Y8775486D03*
G01*
X15654966Y8428495D03*
D32*
G01*
X18830604Y8458986D03*
G01*
X18830604Y8318988D03*
D33*
G01*
X18020960Y8389998D03*
G01*
X18020960Y8239987D03*
G01*
X18580961Y8239987D03*
G01*
X18580961Y8389998D03*
D34*
G01*
X17559963Y8775486D03*
G01*
X17559963Y8428495D03*
D32*
G01*
X20735107Y8457957D03*
G01*
X20735107Y8317960D03*
D33*
G01*
X19925463Y8388969D03*
G01*
X19925463Y8238958D03*
G01*
X20485463Y8238958D03*
G01*
X20485463Y8388969D03*
D34*
G01*
X19464465Y8774457D03*
G01*
X19464465Y8427467D03*
D32*
G01*
X23096098Y8449976D03*
G01*
X23096098Y8309979D03*
D33*
G01*
X22286454Y8380989D03*
G01*
X22286454Y8230977D03*
G01*
X22846454Y8230977D03*
G01*
X22846454Y8380989D03*
D34*
G01*
X21832766Y8775557D03*
G01*
X21832766Y8428567D03*
D32*
G01*
X1923133Y6553483D03*
G01*
X1923133Y6413486D03*
D33*
G01*
X1113489Y6484495D03*
G01*
X1113489Y6334484D03*
G01*
X1673489Y6334484D03*
G01*
X1673489Y6484495D03*
D34*
G01*
X646499Y6663982D03*
G01*
X646499Y6316991D03*
D32*
G01*
X4066661Y6553470D03*
G01*
X4066661Y6413473D03*
D35*
G01*
X3257016Y6484480D03*
G01*
X3257016Y6334470D03*
D36*
G01*
X3817019Y6334470D03*
G01*
X3817019Y6484480D03*
D34*
G01*
X2796019Y6869967D03*
G01*
X2796019Y6522979D03*
D32*
G01*
X5971659Y6553470D03*
D37*
G01*
X5971659Y6413468D03*
D33*
G01*
X5162012Y6484482D03*
G01*
X5162012Y6334475D03*
G01*
X5722012Y6334475D03*
G01*
X5722012Y6484482D03*
D34*
G01*
X4701015Y6869968D03*
G01*
X4701015Y6522980D03*
D32*
G01*
X7876653Y6553465D03*
G01*
X7876653Y6413468D03*
D33*
G01*
X7067011Y6484479D03*
G01*
X7067011Y6334467D03*
G01*
X7627011Y6334467D03*
G01*
X7627011Y6484479D03*
D34*
G01*
X6606010Y6869967D03*
G01*
X6606010Y6522976D03*
D32*
G01*
X9781651Y6553470D03*
G01*
X9781651Y6413473D03*
D33*
G01*
X8972008Y6484482D03*
G01*
X8972008Y6334472D03*
G01*
X9532010Y6334472D03*
G01*
X9532010Y6484482D03*
D38*
G01*
X8511010Y6869971D03*
D34*
G01*
X8511010Y6522980D03*
D32*
G01*
X11686644Y6553467D03*
G01*
X11686644Y6413470D03*
D33*
G01*
X10877002Y6484480D03*
G01*
X10877002Y6334469D03*
G01*
X11437002Y6334469D03*
G01*
X11437002Y6484480D03*
D34*
G01*
X10416005Y6869968D03*
G01*
X10416005Y6522977D03*
D32*
G01*
X13591641Y6553467D03*
G01*
X13591641Y6413470D03*
D33*
G01*
X12781997Y6484480D03*
G01*
X12781997Y6334470D03*
G01*
X13341997Y6334470D03*
G01*
X13341997Y6484480D03*
D34*
G01*
X12321000Y6869969D03*
G01*
X12321000Y6522977D03*
D32*
G01*
X15497131Y6552965D03*
G01*
X15497131Y6412967D03*
D35*
G01*
X14687483Y6483977D03*
G01*
X14687483Y6333966D03*
D33*
G01*
X15247481Y6333966D03*
G01*
X15247481Y6483977D03*
D34*
G01*
X14226482Y6869465D03*
G01*
X14226482Y6522474D03*
D32*
G01*
X17401633Y6553470D03*
G01*
X17401633Y6413473D03*
D33*
G01*
X16591993Y6484482D03*
G01*
X16591993Y6334471D03*
G01*
X17151992Y6334471D03*
G01*
X17151992Y6484482D03*
D34*
G01*
X16130992Y6869969D03*
G01*
X16130992Y6522979D03*
D32*
G01*
X19306632Y6553470D03*
G01*
X19306632Y6413473D03*
D35*
G01*
X18496986Y6484484D03*
G01*
X18496986Y6334471D03*
D33*
G01*
X19056985Y6334471D03*
G01*
X19056985Y6484484D03*
D34*
G01*
X18035987Y6869968D03*
G01*
X18035987Y6522980D03*
D32*
G01*
X22402097Y6553958D03*
G01*
X22402097Y6413961D03*
D35*
G01*
X21592451Y6484970D03*
D39*
G01*
X21592451Y6334955D03*
D40*
G01*
X22152451Y6334955D03*
D36*
G01*
X22152451Y6484970D03*
D34*
G01*
X21131453Y6870453D03*
D38*
G01*
X21131453Y6523464D03*
D32*
G01*
X2401630Y4648475D03*
G01*
X2401630Y4508478D03*
D33*
G01*
X1592023Y4579482D03*
G01*
X1592023Y4429472D03*
G01*
X2151988Y4429472D03*
G01*
X2151988Y4579482D03*
D34*
G01*
X1131027Y4964972D03*
G01*
X1131027Y4617982D03*
D32*
G01*
X5020657Y4648474D03*
G01*
X5020657Y4508478D03*
D33*
G01*
X4211016Y4579487D03*
G01*
X4211016Y4429475D03*
G01*
X4771016Y4429475D03*
G01*
X4771016Y4579487D03*
D34*
G01*
X3750019Y4964974D03*
G01*
X3750019Y4617982D03*
D32*
G01*
X6925657Y4648473D03*
G01*
X6925657Y4508475D03*
D33*
G01*
X6116013Y4579485D03*
G01*
X6116013Y4429474D03*
G01*
X6676016Y4429474D03*
G01*
X6676016Y4579485D03*
D34*
G01*
X5655019Y4964973D03*
G01*
X5655019Y4617982D03*
D32*
G01*
X8830652Y4648467D03*
G01*
X8830652Y4508472D03*
D33*
G01*
X8021008Y4579481D03*
G01*
X8021008Y4429470D03*
G01*
X8581009Y4429470D03*
G01*
X8581009Y4579481D03*
D34*
G01*
X7560011Y4964972D03*
G01*
X7560011Y4617980D03*
D32*
G01*
X10735647Y4648473D03*
G01*
X10735647Y4508475D03*
D35*
G01*
X9926002Y4579485D03*
G01*
X9926002Y4429474D03*
D33*
G01*
X10486001Y4429474D03*
G01*
X10486001Y4579485D03*
D34*
G01*
X9465005Y4964973D03*
G01*
X9465005Y4617982D03*
D32*
G01*
X12640640Y4648471D03*
G01*
X12640640Y4508473D03*
D35*
G01*
X11830999Y4579482D03*
G01*
X11830999Y4429472D03*
D33*
G01*
X12390998Y4429472D03*
G01*
X12390998Y4579482D03*
D34*
G01*
X11370002Y4964972D03*
G01*
X11370002Y4617982D03*
D32*
G01*
X14546122Y4647970D03*
G01*
X14546122Y4507972D03*
D35*
G01*
X13736477Y4578982D03*
G01*
X13736477Y4428972D03*
D33*
G01*
X14296476Y4428972D03*
G01*
X14296476Y4578982D03*
D34*
G01*
X13275480Y4964471D03*
G01*
X13275480Y4617479D03*
D32*
G01*
X16451117Y4647970D03*
G01*
X16451117Y4507972D03*
D33*
G01*
X15641472Y4578982D03*
G01*
X15641472Y4428971D03*
G01*
X16201473Y4428971D03*
G01*
X16201473Y4578982D03*
D34*
G01*
X15180476Y4964470D03*
G01*
X15180476Y4617479D03*
D32*
G01*
X18832118Y4648462D03*
G01*
X18832118Y4508465D03*
D35*
G01*
X18022476Y4579475D03*
G01*
X18022476Y4429464D03*
D36*
G01*
X18582476Y4429464D03*
G01*
X18582476Y4579475D03*
D34*
G01*
X17561478Y4964963D03*
G01*
X17561478Y4617972D03*
D32*
G01*
X21688602Y4648983D03*
G01*
X21688602Y4508986D03*
D33*
G01*
X20878958Y4579997D03*
G01*
X20878958Y4429986D03*
G01*
X21438958Y4429986D03*
G01*
X21438958Y4579997D03*
D34*
G01*
X20417961Y4965485D03*
G01*
X20417961Y4618494D03*
D32*
G01*
X23593624Y4648465D03*
G01*
X23593624Y4508468D03*
D35*
G01*
X22783979Y4579475D03*
G01*
X22783979Y4429465D03*
D36*
G01*
X23343977Y4429465D03*
G01*
X23343977Y4579475D03*
D34*
G01*
X22322981Y4964962D03*
G01*
X22322981Y4617973D03*
D32*
G01*
X1923172Y2741913D03*
G01*
X1923172Y2601916D03*
D33*
G01*
X1113528Y2672925D03*
G01*
X1113528Y2522914D03*
G01*
X1673529Y2522914D03*
G01*
X1673529Y2672925D03*
D34*
G01*
X652532Y3058413D03*
G01*
X652532Y2711424D03*
D32*
G01*
X4304169Y2740968D03*
G01*
X4304169Y2600966D03*
D35*
G01*
X3494524Y2671978D03*
G01*
X3494524Y2521968D03*
D36*
G01*
X4054524Y2521968D03*
G01*
X4054524Y2671978D03*
D34*
G01*
X3029993Y2818489D03*
G01*
X3029993Y2471500D03*
D32*
G01*
X6447640Y2742865D03*
G01*
X6447640Y2602868D03*
D33*
G01*
X5637997Y2673878D03*
G01*
X5637997Y2523867D03*
G01*
X6197998Y2523867D03*
G01*
X6197998Y2673878D03*
D34*
G01*
X5077493Y2849987D03*
G01*
X5077493Y2502997D03*
D32*
G01*
X9543138Y2743470D03*
G01*
X9543138Y2603475D03*
D33*
G01*
X8733499Y2674486D03*
G01*
X8733499Y2524472D03*
G01*
X9293495Y2524472D03*
G01*
X9293495Y2674486D03*
D34*
G01*
X8272498Y3059972D03*
G01*
X8272498Y2712980D03*
D32*
G01*
X14305630Y2743475D03*
G01*
X14305630Y2603478D03*
D35*
G01*
X13495991Y2674487D03*
G01*
X13495991Y2524476D03*
D33*
G01*
X14055986Y2524476D03*
G01*
X14055986Y2674487D03*
D34*
G01*
X13034994Y3059976D03*
G01*
X13034994Y2712985D03*
D32*
G01*
X17877637Y2743473D03*
G01*
X17877637Y2603475D03*
D33*
G01*
X17067992Y2674485D03*
G01*
X17067992Y2524474D03*
G01*
X17627992Y2524474D03*
G01*
X17627992Y2674485D03*
D34*
G01*
X16606993Y3059973D03*
G01*
X16606993Y2712982D03*
D32*
G01*
X19783117Y2743473D03*
G01*
X19783117Y2603475D03*
D33*
G01*
X18973473Y2674485D03*
G01*
X18973473Y2524474D03*
G01*
X19533473Y2524474D03*
G01*
X19533473Y2674485D03*
D34*
G01*
X18512476Y3059973D03*
G01*
X18512476Y2712982D03*
D32*
G01*
X21688135Y2743475D03*
G01*
X21688135Y2603478D03*
D35*
G01*
X20878487Y2674490D03*
G01*
X20878487Y2524478D03*
D36*
G01*
X21438487Y2524478D03*
G01*
X21438487Y2674490D03*
D34*
G01*
X20417490Y3059977D03*
G01*
X20417490Y2712985D03*
D32*
G01*
X23593099Y2743488D03*
G01*
X23593099Y2603491D03*
D33*
G01*
X22783454Y2674503D03*
G01*
X22783454Y2524493D03*
G01*
X23343454Y2524493D03*
G01*
X23343454Y2674503D03*
D34*
G01*
X22322455Y3059992D03*
G01*
X22322455Y2713003D03*
D10*
G01*
X7343978Y3305505D03*
G01*
X7216978Y3305505D03*
G01*
X7343978Y3178505D03*
G01*
X7216978Y3178505D03*
G01*
X7343978Y3051505D03*
G01*
X7216978Y3051505D03*
G01*
X7343978Y2924505D03*
G01*
X7216978Y2924505D03*
G01*
X7343978Y2797505D03*
G01*
X7216978Y2797505D03*
D41*
G01*
X7280478Y3432505D03*
G01*
X7179005Y2670505D03*
G01*
X7382002Y2670505D03*
D42*
G01*
X10995152Y3163163D03*
G01*
X11051743Y3106572D03*
G01*
X11108309Y3050006D03*
G01*
X11164874Y2993440D03*
G01*
X11221440Y2936875D03*
G01*
X11278006Y2880309D03*
G01*
X11334572Y2823743D03*
G01*
X11391163Y2767152D03*
D43*
G01*
X11613895Y2768066D03*
G01*
X11670461Y2824632D03*
G01*
X11727053Y2881223D03*
G01*
X11783618Y2937764D03*
G01*
X11840184Y2994355D03*
G01*
X11896750Y3050895D03*
G01*
X11953316Y3107486D03*
G01*
X12009881Y3164052D03*
D42*
G01*
X12010796Y3386810D03*
G01*
X11954205Y3443376D03*
G01*
X11897639Y3499942D03*
G01*
X11841073Y3556508D03*
G01*
X11784507Y3613073D03*
G01*
X11727942Y3669639D03*
G01*
X11671376Y3726230D03*
G01*
X11614810Y3782796D03*
D43*
G01*
X11392052Y3781882D03*
G01*
X11335486Y3725316D03*
G01*
X11278895Y3668750D03*
G01*
X11222354Y3612184D03*
G01*
X11165763Y3555618D03*
G01*
X11109223Y3499053D03*
G01*
X11052632Y3442487D03*
G01*
X10996066Y3385896D03*
D44*
G01*
X18154777Y5235092D03*
G01*
X18796076Y5489473D03*
G01*
X769213Y7139812D03*
G01*
X1409192Y7394194D03*
G01*
X1411503Y9299981D03*
G01*
X770204Y9045600D03*
G01*
X3315461Y9299498D03*
G01*
X2675483Y9045498D03*
G01*
X4580483Y9045498D03*
G01*
X5220461Y9299498D03*
G01*
X6484975Y9044508D03*
G01*
X7124954Y9298508D03*
G01*
X8390483Y9044000D03*
G01*
X9030461Y9298000D03*
G01*
X1007490Y7140498D03*
G01*
X1647469Y7394498D03*
G01*
X3151022Y7140498D03*
G01*
X3791000Y7394498D03*
G01*
X5055997Y7140498D03*
G01*
X5695975Y7394498D03*
G01*
X7600975Y7394498D03*
G01*
X6960997Y7140498D03*
G01*
X8865997Y7140498D03*
G01*
X9505975Y7394498D03*
G01*
X1485976Y5235498D03*
G01*
X2125954Y5489498D03*
G01*
X1007516Y3329000D03*
G01*
X1647494Y3583000D03*
G01*
X3388512Y3327984D03*
G01*
X4028490Y3581984D03*
G01*
X4105020Y5235498D03*
G01*
X4744999Y5489498D03*
G01*
X5531993Y3329889D03*
G01*
X6171971Y3583889D03*
G01*
X6010020Y5235524D03*
G01*
X6649999Y5489524D03*
G01*
X7914995Y5235498D03*
G01*
X8554974Y5489498D03*
G01*
X8627490Y3330498D03*
G01*
X9267469Y3584498D03*
G01*
X9819995Y5235498D03*
G01*
X10459974Y5489498D03*
G01*
X10295458Y9044000D03*
G01*
X10935436Y9298000D03*
G01*
X10770997Y7140498D03*
G01*
X11410975Y7394498D03*
G01*
X12199975Y9046006D03*
G01*
X12839954Y9300006D03*
G01*
X14104467Y9044990D03*
G01*
X14744445Y9298990D03*
G01*
X12675997Y7140498D03*
G01*
X13315975Y7394498D03*
G01*
X14581479Y7139990D03*
G01*
X15221458Y7393990D03*
G01*
X16009950Y9046006D03*
G01*
X16485997Y7140498D03*
G01*
X17125975Y7394498D03*
G01*
X11724995Y5235498D03*
G01*
X12364974Y5489498D03*
G01*
X13389991Y3330498D03*
G01*
X14029969Y3584498D03*
G01*
X13630478Y5234990D03*
G01*
X14270456Y5488990D03*
G01*
X15535478Y5234990D03*
G01*
X16175456Y5488990D03*
G01*
X16961993Y3330498D03*
G01*
X17601971Y3584498D03*
G01*
X17916474Y5235498D03*
G01*
X18556452Y5489498D03*
G01*
X18390971Y7140498D03*
G01*
X19030950Y7394498D03*
G01*
X17914950Y9046006D03*
G01*
X16649928Y9300006D03*
G01*
X18554928Y9300006D03*
G01*
X19819467Y9044965D03*
G01*
X20459445Y9298965D03*
G01*
X18867475Y3330498D03*
G01*
X19507454Y3584498D03*
G01*
X20772475Y3330498D03*
G01*
X21412454Y3584498D03*
G01*
X20772958Y5236006D03*
G01*
X21412936Y5490006D03*
G01*
X22677450Y3330524D03*
G01*
X23317428Y3584524D03*
G01*
X22677983Y5235498D03*
G01*
X23317961Y5489498D03*
G01*
X21486469Y7140981D03*
G01*
X22126448Y7394981D03*
G01*
X22187763Y9046083D03*
G01*
X22827741Y9300083D03*
D45*
G01*
X2463495Y4042486D03*
G01*
X2463495Y7848980D03*
G01*
X21755455Y4041978D03*
D46*
G01*
X21755455Y7974990D03*
D45*
G01*
X12106986Y5944996D03*
M02*
