G04 Layer: BottomPasteMaskLayer*
G04 EasyEDA v6.5.42, 2024-05-12 21:06:32*
G04 fdf4e44396eb4d6a93e1883587b5baf6,156c37ef0924441e834bf69462bb4c55,10*
G04 Gerber Generator version 0.2*
G04 Scale: 100 percent, Rotated: No, Reflected: No *
G04 Dimensions in millimeters *
G04 leading zeros omitted , absolute positions ,4 integer and 5 decimal *
%FSLAX45Y45*%
%MOMM*%

%AMMACRO1*21,1,$1,$2,0,0,$3*%
%AMMACRO2*1,1,$1,$2,$3*1,1,$1,$4,$5*20,1,$1,$2,$3,$4,$5,0*%
%ADD10C,0.7870*%
%ADD11MACRO1,1X0.7498X0.0000*%
%ADD12MACRO1,1X0.7501X0.0000*%
%ADD13MACRO1,0.7998X0.9002X0.0000*%
%ADD14MACRO1,0.8001X0.9002X0.0000*%
%ADD15MACRO1,0.7998X0.8999X0.0000*%
%ADD16MACRO1,0.8001X0.8999X0.0000*%
%ADD17MACRO1,1.4X1.2001X0.0000*%
%ADD18MACRO1,0.8001X0.9002X90.0000*%
%ADD19R,1.5000X0.8200*%
%ADD20MACRO1,1.1001X1X90.0000*%
%ADD21MACRO1,0.8001X0.8999X90.0000*%
%ADD22MACRO1,0.7998X0.9002X90.0000*%
%ADD23MACRO1,1.1001X1.0003X90.0000*%
%ADD24MACRO1,1.0998X1X90.0000*%
%ADD25MACRO1,0.7998X0.8999X90.0000*%
%ADD26MACRO2,0.45X-0.4243X-0.4243X0.4243X0.4243*%
%ADD27MACRO2,0.45X-0.4243X0.4243X0.4243X-0.4243*%
%ADD28C,0.0180*%

%LPD*%
G36*
X8492998Y4106976D02*
G01*
X8487968Y4101998D01*
X8487968Y4053992D01*
X8492998Y4046982D01*
X8537956Y4046982D01*
X8542985Y4053992D01*
X8542985Y4101998D01*
X8537956Y4106976D01*
G37*
G36*
X8492998Y4011015D02*
G01*
X8487968Y4004005D01*
X8487968Y3955999D01*
X8492998Y3950970D01*
X8537956Y3950970D01*
X8542985Y3955999D01*
X8542985Y4004005D01*
X8537956Y4011015D01*
G37*
G36*
X9379458Y4016501D02*
G01*
X9374479Y4011472D01*
X9374479Y3966514D01*
X9379458Y3961485D01*
X9427464Y3961485D01*
X9434474Y3966514D01*
X9434474Y4011472D01*
X9427464Y4016501D01*
G37*
G36*
X9477502Y4016501D02*
G01*
X9470491Y4011472D01*
X9470491Y3966514D01*
X9477502Y3961485D01*
X9525457Y3961485D01*
X9530486Y3966514D01*
X9530486Y4011472D01*
X9525457Y4016501D01*
G37*
G36*
X21284438Y9147200D02*
G01*
X21284438Y9052204D01*
X21314410Y9052204D01*
X21314410Y9147200D01*
G37*
G36*
X20984464Y9147200D02*
G01*
X20984464Y9052204D01*
X21014486Y9052204D01*
X21014486Y9147200D01*
G37*
G36*
X21334476Y9147200D02*
G01*
X21334476Y9052204D01*
X21364448Y9052204D01*
X21364448Y9147200D01*
G37*
G36*
X21234450Y9147200D02*
G01*
X21234450Y9052204D01*
X21264473Y9052204D01*
X21264473Y9147200D01*
G37*
G36*
X21534475Y9147200D02*
G01*
X21534475Y9052204D01*
X21564447Y9052204D01*
X21564447Y9147200D01*
G37*
G36*
X21184463Y9147200D02*
G01*
X21184463Y9052204D01*
X21214435Y9052204D01*
X21214435Y9147200D01*
G37*
G36*
X21484437Y9147200D02*
G01*
X21484437Y9052204D01*
X21514460Y9052204D01*
X21514460Y9147200D01*
G37*
G36*
X21134476Y9147200D02*
G01*
X21134476Y9052204D01*
X21164448Y9052204D01*
X21164448Y9147200D01*
G37*
G36*
X21434450Y9147200D02*
G01*
X21434450Y9052204D01*
X21464473Y9052204D01*
X21464473Y9147200D01*
G37*
G36*
X21034451Y9147200D02*
G01*
X21034451Y9052204D01*
X21064474Y9052204D01*
X21064474Y9147200D01*
G37*
G36*
X21384463Y9147200D02*
G01*
X21384463Y9052204D01*
X21414435Y9052204D01*
X21414435Y9147200D01*
G37*
G36*
X21084489Y9147200D02*
G01*
X21084489Y9052204D01*
X21114461Y9052204D01*
X21114461Y9147200D01*
G37*
G36*
X21509482Y9287154D02*
G01*
X21509482Y9192158D01*
X21539454Y9192158D01*
X21539454Y9287154D01*
G37*
G36*
X20959470Y9287154D02*
G01*
X20959470Y9192158D01*
X20989442Y9192158D01*
X20989442Y9287154D01*
G37*
G36*
X21009457Y9287154D02*
G01*
X21009457Y9192158D01*
X21039429Y9192158D01*
X21039429Y9287154D01*
G37*
G36*
X21459444Y9287154D02*
G01*
X21459444Y9192158D01*
X21489466Y9192158D01*
X21489466Y9287154D01*
G37*
G36*
X21059444Y9287154D02*
G01*
X21059444Y9192158D01*
X21089467Y9192158D01*
X21089467Y9287154D01*
G37*
G36*
X21109482Y9287154D02*
G01*
X21109482Y9192158D01*
X21139454Y9192158D01*
X21139454Y9287154D01*
G37*
G36*
X21159470Y9287154D02*
G01*
X21159470Y9192158D01*
X21189442Y9192158D01*
X21189442Y9287154D01*
G37*
G36*
X21409456Y9287154D02*
G01*
X21409456Y9192158D01*
X21439479Y9192158D01*
X21439479Y9287154D01*
G37*
G36*
X21209406Y9287154D02*
G01*
X21209406Y9192158D01*
X21239429Y9192158D01*
X21239429Y9287154D01*
G37*
G36*
X21259444Y9287154D02*
G01*
X21259444Y9192158D01*
X21289467Y9192158D01*
X21289467Y9287154D01*
G37*
G36*
X21309482Y9287154D02*
G01*
X21309482Y9192158D01*
X21339454Y9192158D01*
X21339454Y9287154D01*
G37*
G36*
X21359469Y9287154D02*
G01*
X21359469Y9192158D01*
X21389441Y9192158D01*
X21389441Y9287154D01*
G37*
G36*
X21692717Y9732264D02*
G01*
X21687739Y9731857D01*
X21682811Y9730994D01*
X21678036Y9729673D01*
X21673413Y9727844D01*
X21668943Y9725558D01*
X21664726Y9722866D01*
X21660866Y9719716D01*
X21657310Y9716262D01*
X21654109Y9712452D01*
X21651264Y9708337D01*
X21648877Y9703968D01*
X21646946Y9699345D01*
X21645473Y9694621D01*
X21644508Y9689744D01*
X21644000Y9684766D01*
X21643949Y9552228D01*
X21644203Y9547301D01*
X21644914Y9542373D01*
X21646184Y9537547D01*
X21647861Y9532823D01*
X21650045Y9528352D01*
X21652636Y9524085D01*
X21655633Y9520123D01*
X21659037Y9516465D01*
X21662796Y9513163D01*
X21666809Y9510268D01*
X21671127Y9507778D01*
X21675699Y9505746D01*
X21680424Y9504172D01*
X21685250Y9503054D01*
X21690228Y9502394D01*
X21695206Y9502292D01*
X21700185Y9502648D01*
X21705062Y9503511D01*
X21709837Y9504883D01*
X21714510Y9506712D01*
X21718930Y9508998D01*
X21723146Y9511639D01*
X21727007Y9514789D01*
X21730563Y9518243D01*
X21733814Y9522104D01*
X21736608Y9526168D01*
X21738996Y9530588D01*
X21740926Y9535160D01*
X21742400Y9539935D01*
X21743365Y9544812D01*
X21743873Y9549739D01*
X21743974Y9682276D01*
X21743720Y9687255D01*
X21742958Y9692182D01*
X21741739Y9697008D01*
X21740012Y9701682D01*
X21737878Y9706203D01*
X21735237Y9710420D01*
X21732240Y9714433D01*
X21728836Y9718040D01*
X21725128Y9721342D01*
X21721064Y9724288D01*
X21716746Y9726777D01*
X21712224Y9728809D01*
X21707500Y9730384D01*
X21702623Y9731502D01*
X21697696Y9732111D01*
G37*
G36*
X20828711Y9732264D02*
G01*
X20823732Y9731857D01*
X20818805Y9730994D01*
X20814030Y9729673D01*
X20809356Y9727844D01*
X20804936Y9725558D01*
X20800771Y9722866D01*
X20796859Y9719716D01*
X20793303Y9716262D01*
X20790103Y9712452D01*
X20787309Y9708337D01*
X20784921Y9703968D01*
X20782991Y9699345D01*
X20781518Y9694621D01*
X20780502Y9689744D01*
X20779994Y9684766D01*
X20779943Y9552279D01*
X20780197Y9547301D01*
X20780959Y9542373D01*
X20782178Y9537547D01*
X20783854Y9532874D01*
X20786039Y9528352D01*
X20788630Y9524085D01*
X20791627Y9520123D01*
X20795030Y9516465D01*
X20798790Y9513163D01*
X20802803Y9510268D01*
X20807172Y9507778D01*
X20811693Y9505746D01*
X20816417Y9504172D01*
X20821243Y9503054D01*
X20826222Y9502394D01*
X20831200Y9502292D01*
X20836178Y9502648D01*
X20841106Y9503511D01*
X20845881Y9504883D01*
X20850504Y9506712D01*
X20854974Y9508998D01*
X20859140Y9511639D01*
X20863052Y9514789D01*
X20866608Y9518243D01*
X20869808Y9522104D01*
X20872602Y9526168D01*
X20874990Y9530588D01*
X20876920Y9535160D01*
X20878393Y9539935D01*
X20879409Y9544812D01*
X20879866Y9549739D01*
X20879968Y9682276D01*
X20879714Y9687255D01*
X20878952Y9692182D01*
X20877733Y9697008D01*
X20876056Y9701682D01*
X20873872Y9706152D01*
X20871281Y9710420D01*
X20868233Y9714433D01*
X20864830Y9718040D01*
X20861121Y9721342D01*
X20857057Y9724288D01*
X20852790Y9726777D01*
X20848218Y9728809D01*
X20843494Y9730384D01*
X20838617Y9731502D01*
X20833689Y9732111D01*
G37*
G36*
X20853958Y9277248D02*
G01*
X20845983Y9276638D01*
X20838160Y9275216D01*
X20830489Y9273133D01*
X20823072Y9270187D01*
X20815960Y9266529D01*
X20809254Y9262211D01*
X20803006Y9257233D01*
X20797316Y9251696D01*
X20792186Y9245549D01*
X20787664Y9238996D01*
X20783854Y9231985D01*
X20780806Y9224619D01*
X20778419Y9216999D01*
X20776844Y9209176D01*
X20776031Y9201251D01*
X20775930Y9127286D01*
X20776336Y9119311D01*
X20777555Y9111437D01*
X20778419Y9107525D01*
X20780806Y9099905D01*
X20783854Y9092539D01*
X20787664Y9085529D01*
X20792186Y9078976D01*
X20797316Y9072829D01*
X20803006Y9067292D01*
X20809254Y9062313D01*
X20815960Y9057995D01*
X20823072Y9054338D01*
X20826730Y9052763D01*
X20834299Y9050274D01*
X20842071Y9048445D01*
X20849996Y9047480D01*
X20857972Y9047276D01*
X20865896Y9047886D01*
X20873770Y9049258D01*
X20881441Y9051442D01*
X20888858Y9054338D01*
X20895970Y9057995D01*
X20902676Y9062313D01*
X20908873Y9067292D01*
X20914563Y9072829D01*
X20919744Y9078976D01*
X20924215Y9085529D01*
X20928025Y9092539D01*
X20931124Y9099905D01*
X20933460Y9107525D01*
X20935086Y9115348D01*
X20935848Y9123273D01*
X20935950Y9197238D01*
X20935543Y9205214D01*
X20935086Y9209176D01*
X20933460Y9216999D01*
X20931124Y9224619D01*
X20928025Y9231985D01*
X20924215Y9238945D01*
X20919744Y9245549D01*
X20914563Y9251696D01*
X20908873Y9257233D01*
X20902676Y9262211D01*
X20895970Y9266529D01*
X20888858Y9270187D01*
X20881441Y9273082D01*
X20873770Y9275216D01*
X20865896Y9276638D01*
X20857972Y9277248D01*
G37*
G36*
X21665996Y9277248D02*
G01*
X21658021Y9276638D01*
X21650147Y9275216D01*
X21642476Y9273133D01*
X21635059Y9270187D01*
X21627998Y9266529D01*
X21621242Y9262211D01*
X21615044Y9257233D01*
X21609304Y9251645D01*
X21606662Y9248698D01*
X21601836Y9242348D01*
X21597721Y9235541D01*
X21594267Y9228328D01*
X21591524Y9220860D01*
X21590406Y9216999D01*
X21588882Y9209176D01*
X21588069Y9201251D01*
X21587968Y9127286D01*
X21588374Y9119311D01*
X21589542Y9111437D01*
X21590406Y9107525D01*
X21592794Y9099905D01*
X21595892Y9092539D01*
X21599702Y9085529D01*
X21601836Y9082176D01*
X21606662Y9075826D01*
X21612098Y9069984D01*
X21618092Y9064701D01*
X21624544Y9060078D01*
X21631452Y9056065D01*
X21638717Y9052763D01*
X21646286Y9050274D01*
X21654058Y9048496D01*
X21661983Y9047480D01*
X21669959Y9047276D01*
X21677884Y9047886D01*
X21685758Y9049258D01*
X21693428Y9051442D01*
X21697188Y9052763D01*
X21704452Y9056065D01*
X21711361Y9060078D01*
X21717863Y9064701D01*
X21723807Y9069984D01*
X21729242Y9075826D01*
X21734068Y9082176D01*
X21738234Y9088983D01*
X21741688Y9096197D01*
X21744432Y9103664D01*
X21746362Y9111437D01*
X21747581Y9119311D01*
X21747886Y9123273D01*
X21747937Y9197289D01*
X21747581Y9205214D01*
X21746362Y9213138D01*
X21744432Y9220860D01*
X21741688Y9228328D01*
X21738234Y9235541D01*
X21734068Y9242348D01*
X21729242Y9248698D01*
X21723807Y9254540D01*
X21717863Y9259824D01*
X21711361Y9264446D01*
X21704452Y9268460D01*
X21697188Y9271711D01*
X21693428Y9273133D01*
X21685758Y9275216D01*
X21677884Y9276638D01*
X21669959Y9277248D01*
G37*
G36*
X15425978Y3223514D02*
G01*
X15421000Y3218484D01*
X15421000Y3138474D01*
X15425978Y3133496D01*
X15505938Y3133496D01*
X15510967Y3138474D01*
X15510967Y3162706D01*
X15473984Y3162706D01*
X15473984Y3195675D01*
X15510967Y3195675D01*
X15510967Y3218484D01*
X15505938Y3223514D01*
G37*
G36*
X15585948Y3223514D02*
G01*
X15580969Y3218484D01*
X15580969Y3195675D01*
X15618968Y3195675D01*
X15618968Y3162706D01*
X15580969Y3162706D01*
X15580969Y3138474D01*
X15585948Y3133496D01*
X15664992Y3133496D01*
X15669971Y3138474D01*
X15669971Y3218484D01*
X15664992Y3223514D01*
G37*
G36*
X15425978Y3392982D02*
G01*
X15420949Y3388004D01*
X15420949Y3307994D01*
X15425978Y3303015D01*
X15505938Y3303015D01*
X15510967Y3307994D01*
X15510967Y3332175D01*
X15473984Y3332175D01*
X15473984Y3365195D01*
X15510967Y3365195D01*
X15510967Y3388004D01*
X15505938Y3392982D01*
G37*
G36*
X15585948Y3392982D02*
G01*
X15580969Y3388004D01*
X15580969Y3365195D01*
X15618968Y3365195D01*
X15618968Y3332175D01*
X15580969Y3332175D01*
X15580969Y3307994D01*
X15585948Y3303015D01*
X15664942Y3303015D01*
X15669971Y3307994D01*
X15669971Y3388004D01*
X15664942Y3392982D01*
G37*
G36*
X15422981Y3563975D02*
G01*
X15417952Y3558997D01*
X15417952Y3478987D01*
X15422981Y3474008D01*
X15502940Y3474008D01*
X15507969Y3478987D01*
X15507969Y3503168D01*
X15470987Y3503168D01*
X15470987Y3536187D01*
X15507969Y3536187D01*
X15507969Y3558997D01*
X15502940Y3563975D01*
G37*
G36*
X15582950Y3563975D02*
G01*
X15577972Y3558997D01*
X15577972Y3536187D01*
X15615970Y3536187D01*
X15615970Y3503168D01*
X15577972Y3503168D01*
X15577972Y3478987D01*
X15582950Y3474008D01*
X15661944Y3474008D01*
X15666974Y3478987D01*
X15666974Y3558997D01*
X15661944Y3563975D01*
G37*
G36*
X21178977Y8632494D02*
G01*
X21173948Y8627465D01*
X21173948Y8547506D01*
X21178977Y8542477D01*
X21258936Y8542477D01*
X21263965Y8547506D01*
X21263965Y8571687D01*
X21226983Y8571687D01*
X21226983Y8604707D01*
X21263965Y8604707D01*
X21263965Y8627465D01*
X21258936Y8632494D01*
G37*
G36*
X21338946Y8632494D02*
G01*
X21333968Y8627465D01*
X21333968Y8604707D01*
X21371966Y8604707D01*
X21371966Y8571687D01*
X21333968Y8571687D01*
X21333968Y8547506D01*
X21338946Y8542477D01*
X21417940Y8542477D01*
X21422969Y8547506D01*
X21422969Y8627465D01*
X21417940Y8632494D01*
G37*
G36*
X21180450Y8462975D02*
G01*
X21175472Y8457996D01*
X21175472Y8377986D01*
X21180450Y8373008D01*
X21260460Y8373008D01*
X21265438Y8377986D01*
X21265438Y8402167D01*
X21228456Y8402167D01*
X21228456Y8435187D01*
X21265438Y8435187D01*
X21265438Y8457996D01*
X21260460Y8462975D01*
G37*
G36*
X21340470Y8462975D02*
G01*
X21335441Y8457996D01*
X21335441Y8435187D01*
X21373439Y8435187D01*
X21373439Y8402167D01*
X21335441Y8402167D01*
X21335441Y8377986D01*
X21340470Y8373008D01*
X21419464Y8373008D01*
X21424442Y8377986D01*
X21424442Y8457996D01*
X21419464Y8462975D01*
G37*
D10*
G01*
X12139980Y3949496D03*
G01*
X10703991Y3947972D03*
G01*
X10209987Y2984931D03*
G01*
X12589967Y2986481D03*
D11*
G01*
X15663735Y2994990D03*
G01*
X15429217Y2994990D03*
D12*
G01*
X15419209Y2801988D03*
G01*
X15653727Y2801988D03*
D13*
G01*
X11505984Y4058996D03*
D14*
G01*
X11645976Y4058996D03*
D15*
G01*
X21362962Y8237486D03*
G01*
X21222957Y8237486D03*
D16*
G01*
X21363457Y8043481D03*
G01*
X21223452Y8043481D03*
D17*
G01*
X9020479Y3939501D03*
G01*
X8800490Y3939501D03*
G01*
X8800490Y4114507D03*
G01*
X9020479Y4114507D03*
D18*
G01*
X1685848Y8458581D03*
G01*
X1685848Y8318576D03*
D19*
G01*
X876198Y8389594D03*
G01*
X876198Y8239582D03*
G01*
X1436217Y8239582D03*
G01*
X1436217Y8389594D03*
D20*
G01*
X415201Y8775077D03*
G01*
X415201Y8428088D03*
D18*
G01*
X3591128Y8458479D03*
G01*
X3591128Y8318474D03*
D19*
G01*
X2781477Y8389493D03*
G01*
X2781477Y8239480D03*
G01*
X3341497Y8239480D03*
G01*
X3341497Y8389493D03*
D20*
G01*
X2320480Y8774976D03*
G01*
X2320480Y8427986D03*
D18*
G01*
X5496128Y8458479D03*
G01*
X5496128Y8318474D03*
D19*
G01*
X4686477Y8389493D03*
G01*
X4686477Y8239480D03*
G01*
X5246497Y8239480D03*
G01*
X5246497Y8389493D03*
D20*
G01*
X4225480Y8774976D03*
G01*
X4225480Y8427986D03*
D21*
G01*
X7400632Y8457488D03*
G01*
X7400632Y8317484D03*
D19*
G01*
X6590995Y8388502D03*
G01*
X6590995Y8238489D03*
G01*
X7150988Y8238489D03*
G01*
X7150988Y8388502D03*
D20*
G01*
X6129997Y8773985D03*
G01*
X6129997Y8426996D03*
D18*
G01*
X9306128Y8456980D03*
G01*
X9306128Y8316975D03*
D19*
G01*
X8496477Y8387994D03*
G01*
X8496477Y8237981D03*
G01*
X9056471Y8237981D03*
G01*
X9056471Y8387994D03*
D20*
G01*
X8035480Y8773477D03*
G01*
X8035480Y8426488D03*
D21*
G01*
X11211115Y8456980D03*
G01*
X11211115Y8316975D03*
D19*
G01*
X10401477Y8387994D03*
G01*
X10401477Y8237981D03*
G01*
X10961471Y8237981D03*
G01*
X10961471Y8387994D03*
D20*
G01*
X9940480Y8773477D03*
G01*
X9940480Y8426488D03*
D18*
G01*
X13115620Y8458987D03*
G01*
X13115620Y8318982D03*
D19*
G01*
X12305969Y8390001D03*
G01*
X12305969Y8239988D03*
G01*
X12865963Y8239988D03*
G01*
X12865963Y8390001D03*
D20*
G01*
X11844972Y8775484D03*
G01*
X11844972Y8428494D03*
D22*
G01*
X15020112Y8457958D03*
D18*
G01*
X15020112Y8317966D03*
D19*
G01*
X14210461Y8388959D03*
G01*
X14210461Y8238972D03*
G01*
X14770481Y8238972D03*
G01*
X14770481Y8388959D03*
D23*
G01*
X13749477Y8774468D03*
G01*
X13749477Y8427478D03*
D21*
G01*
X16925607Y8458987D03*
G01*
X16925607Y8318982D03*
D19*
G01*
X16115969Y8390001D03*
G01*
X16115969Y8239988D03*
G01*
X16675963Y8239988D03*
G01*
X16675963Y8390001D03*
D20*
G01*
X15654972Y8775484D03*
G01*
X15654972Y8428494D03*
D21*
G01*
X18830607Y8458987D03*
G01*
X18830607Y8318982D03*
D19*
G01*
X18020969Y8390001D03*
G01*
X18020969Y8239988D03*
G01*
X18580963Y8239988D03*
G01*
X18580963Y8390001D03*
D20*
G01*
X17559972Y8775484D03*
G01*
X17559972Y8428494D03*
D22*
G01*
X20735112Y8457958D03*
G01*
X20735112Y8317953D03*
D19*
G01*
X19925461Y8388959D03*
G01*
X19925461Y8238947D03*
G01*
X20485455Y8238947D03*
G01*
X20485455Y8388959D03*
D20*
G01*
X19464464Y8774468D03*
D24*
G01*
X19464464Y8427465D03*
D18*
G01*
X23096093Y8449970D03*
D22*
G01*
X23096093Y8309978D03*
D19*
G01*
X22286442Y8380984D03*
G01*
X22286442Y8230971D03*
G01*
X22846461Y8230971D03*
G01*
X22846461Y8380984D03*
D20*
G01*
X21832760Y8775560D03*
G01*
X21832760Y8428570D03*
D18*
G01*
X1923135Y6553479D03*
D22*
G01*
X1923135Y6413487D03*
D19*
G01*
X1113485Y6484493D03*
G01*
X1113485Y6334480D03*
G01*
X1673479Y6334480D03*
G01*
X1673479Y6484493D03*
D20*
G01*
X646493Y6663982D03*
G01*
X646493Y6316992D03*
D22*
G01*
X4066667Y6553466D03*
D18*
G01*
X4066667Y6413474D03*
D19*
G01*
X3257016Y6484467D03*
G01*
X3257016Y6334480D03*
G01*
X3817010Y6334480D03*
G01*
X3817010Y6484467D03*
D20*
G01*
X2796019Y6869976D03*
G01*
X2796019Y6522986D03*
D22*
G01*
X5971667Y6553466D03*
G01*
X5971667Y6413461D03*
D19*
G01*
X5162016Y6484493D03*
G01*
X5162016Y6334480D03*
G01*
X5722010Y6334480D03*
G01*
X5722010Y6484493D03*
D20*
G01*
X4701019Y6869976D03*
G01*
X4701019Y6522986D03*
D25*
G01*
X7876654Y6553466D03*
G01*
X7876654Y6413461D03*
D19*
G01*
X7067016Y6484467D03*
G01*
X7067016Y6334455D03*
G01*
X7627010Y6334455D03*
G01*
X7627010Y6484467D03*
D20*
G01*
X6606019Y6869976D03*
D24*
G01*
X6606019Y6522973D03*
D25*
G01*
X9781654Y6553466D03*
D21*
G01*
X9781654Y6413474D03*
D19*
G01*
X8972016Y6484493D03*
G01*
X8972016Y6334480D03*
G01*
X9532010Y6334480D03*
G01*
X9532010Y6484493D03*
D20*
G01*
X8511019Y6869976D03*
G01*
X8511019Y6522986D03*
D22*
G01*
X11686641Y6553466D03*
D18*
G01*
X11686641Y6413474D03*
D19*
G01*
X10876991Y6484467D03*
G01*
X10876991Y6334480D03*
G01*
X11437010Y6334480D03*
G01*
X11437010Y6484467D03*
D23*
G01*
X10416006Y6869976D03*
G01*
X10416006Y6522986D03*
D22*
G01*
X13591641Y6553466D03*
D18*
G01*
X13591641Y6413474D03*
D19*
G01*
X12781991Y6484467D03*
G01*
X12781991Y6334480D03*
G01*
X13342010Y6334480D03*
G01*
X13342010Y6484467D03*
D20*
G01*
X12320993Y6869976D03*
G01*
X12320993Y6522986D03*
D25*
G01*
X15497136Y6552958D03*
D21*
G01*
X15497136Y6412966D03*
D19*
G01*
X14687473Y6483985D03*
G01*
X14687473Y6333972D03*
G01*
X15247493Y6333972D03*
G01*
X15247493Y6483985D03*
D20*
G01*
X14226476Y6869468D03*
G01*
X14226476Y6522478D03*
D22*
G01*
X17401641Y6553466D03*
D18*
G01*
X17401641Y6413474D03*
D19*
G01*
X16591991Y6484493D03*
G01*
X16591991Y6334480D03*
G01*
X17151984Y6334480D03*
G01*
X17151984Y6484493D03*
D20*
G01*
X16130993Y6869976D03*
G01*
X16130993Y6522986D03*
D22*
G01*
X19306641Y6553466D03*
D18*
G01*
X19306641Y6413474D03*
D19*
G01*
X18496991Y6484493D03*
G01*
X18496991Y6334480D03*
G01*
X19056984Y6334480D03*
G01*
X19056984Y6484493D03*
D20*
G01*
X18035993Y6869976D03*
G01*
X18035993Y6522986D03*
D21*
G01*
X22402101Y6553962D03*
G01*
X22402101Y6413957D03*
D19*
G01*
X21592463Y6484975D03*
G01*
X21592463Y6334963D03*
G01*
X22152457Y6334963D03*
G01*
X22152457Y6484975D03*
D20*
G01*
X21131466Y6870458D03*
G01*
X21131466Y6523469D03*
D21*
G01*
X2401633Y4648479D03*
G01*
X2401633Y4508474D03*
D19*
G01*
X1592021Y4579493D03*
G01*
X1592021Y4429480D03*
G01*
X2151989Y4429480D03*
G01*
X2151989Y4579493D03*
D20*
G01*
X1131023Y4964976D03*
G01*
X1131023Y4617986D03*
D18*
G01*
X5020665Y4648479D03*
G01*
X5020665Y4508474D03*
D19*
G01*
X4211015Y4579493D03*
G01*
X4211015Y4429480D03*
G01*
X4771009Y4429480D03*
G01*
X4771009Y4579493D03*
D20*
G01*
X3750017Y4964976D03*
G01*
X3750017Y4617986D03*
D22*
G01*
X6925665Y4648466D03*
D18*
G01*
X6925665Y4508474D03*
D19*
G01*
X6116015Y4579493D03*
G01*
X6116015Y4429480D03*
G01*
X6676009Y4429480D03*
G01*
X6676009Y4579493D03*
D20*
G01*
X5655017Y4964976D03*
G01*
X5655017Y4617986D03*
D25*
G01*
X8830652Y4648466D03*
D21*
G01*
X8830652Y4508474D03*
D19*
G01*
X8021015Y4579493D03*
G01*
X8021015Y4429480D03*
G01*
X8581009Y4429480D03*
G01*
X8581009Y4579493D03*
D20*
G01*
X7560017Y4964976D03*
G01*
X7560017Y4617986D03*
D25*
G01*
X10735652Y4648466D03*
D21*
G01*
X10735652Y4508474D03*
D19*
G01*
X9926015Y4579493D03*
G01*
X9926015Y4429480D03*
G01*
X10486009Y4429480D03*
G01*
X10486009Y4579493D03*
D20*
G01*
X9465017Y4964976D03*
G01*
X9465017Y4617986D03*
D22*
G01*
X12640640Y4648466D03*
D18*
G01*
X12640640Y4508474D03*
D19*
G01*
X11830989Y4579493D03*
G01*
X11830989Y4429480D03*
G01*
X12391009Y4429480D03*
G01*
X12391009Y4579493D03*
D20*
G01*
X11369992Y4964976D03*
G01*
X11369992Y4617986D03*
D18*
G01*
X14546122Y4647971D03*
G01*
X14546122Y4507966D03*
D19*
G01*
X13736472Y4578985D03*
G01*
X13736472Y4428972D03*
G01*
X14296466Y4428972D03*
G01*
X14296466Y4578985D03*
D20*
G01*
X13275475Y4964468D03*
G01*
X13275475Y4617478D03*
D18*
G01*
X16451122Y4647971D03*
G01*
X16451122Y4507966D03*
D19*
G01*
X15641472Y4578985D03*
G01*
X15641472Y4428972D03*
G01*
X16201466Y4428972D03*
G01*
X16201466Y4578985D03*
D20*
G01*
X15180475Y4964468D03*
G01*
X15180475Y4617478D03*
D22*
G01*
X18832118Y4648466D03*
G01*
X18832118Y4508461D03*
D19*
G01*
X18022468Y4579467D03*
G01*
X18022468Y4429455D03*
G01*
X18582487Y4429455D03*
G01*
X18582487Y4579467D03*
D20*
G01*
X17561471Y4964950D03*
G01*
X17561471Y4617961D03*
D18*
G01*
X21688602Y4648987D03*
G01*
X21688602Y4508982D03*
D19*
G01*
X20878952Y4580001D03*
G01*
X20878952Y4429988D03*
G01*
X21438971Y4429988D03*
G01*
X21438971Y4580001D03*
D20*
G01*
X20417955Y4965484D03*
G01*
X20417955Y4618494D03*
D22*
G01*
X23593628Y4648466D03*
G01*
X23593628Y4508461D03*
D19*
G01*
X22783977Y4579467D03*
G01*
X22783977Y4429455D03*
G01*
X23343971Y4429455D03*
G01*
X23343971Y4579467D03*
D20*
G01*
X22322980Y4964950D03*
G01*
X22322980Y4617961D03*
D25*
G01*
X1923173Y2741917D03*
G01*
X1923173Y2601912D03*
D19*
G01*
X1113536Y2672918D03*
G01*
X1113536Y2522905D03*
G01*
X1673529Y2522905D03*
G01*
X1673529Y2672918D03*
D20*
G01*
X652538Y3058401D03*
D24*
G01*
X652538Y2711424D03*
D21*
G01*
X4304169Y2740964D03*
G01*
X4304169Y2600959D03*
D19*
G01*
X3494531Y2671978D03*
G01*
X3494531Y2521965D03*
G01*
X4054525Y2521965D03*
G01*
X4054525Y2671978D03*
D20*
G01*
X3030004Y2818498D03*
G01*
X3030004Y2471508D03*
D18*
G01*
X6447637Y2742869D03*
G01*
X6447637Y2602865D03*
D19*
G01*
X5637987Y2673883D03*
G01*
X5637987Y2523870D03*
G01*
X6198006Y2523870D03*
G01*
X6198006Y2673883D03*
D20*
G01*
X5077498Y2849994D03*
G01*
X5077498Y2503004D03*
D22*
G01*
X9543135Y2743466D03*
D18*
G01*
X9543135Y2603474D03*
D19*
G01*
X8733510Y2674493D03*
G01*
X8733510Y2524480D03*
G01*
X9293504Y2524480D03*
G01*
X9293504Y2674493D03*
D23*
G01*
X8272500Y3059976D03*
G01*
X8272500Y2712986D03*
D18*
G01*
X14305635Y2743479D03*
G01*
X14305635Y2603474D03*
D19*
G01*
X13495985Y2674493D03*
G01*
X13495985Y2524480D03*
G01*
X14055979Y2524480D03*
G01*
X14055979Y2674493D03*
D20*
G01*
X13034987Y3059976D03*
G01*
X13034987Y2712986D03*
D22*
G01*
X17877637Y2743466D03*
D18*
G01*
X17877637Y2603474D03*
D19*
G01*
X17067987Y2674493D03*
G01*
X17067987Y2524480D03*
G01*
X17627981Y2524480D03*
G01*
X17627981Y2674493D03*
D20*
G01*
X16606989Y3059976D03*
G01*
X16606989Y2712986D03*
D22*
G01*
X19783120Y2743466D03*
D18*
G01*
X19783120Y2603474D03*
D19*
G01*
X18973469Y2674493D03*
G01*
X18973469Y2524480D03*
G01*
X19533463Y2524480D03*
G01*
X19533463Y2674493D03*
D20*
G01*
X18512472Y3059976D03*
G01*
X18512472Y2712986D03*
D21*
G01*
X21688132Y2743479D03*
G01*
X21688132Y2603474D03*
D19*
G01*
X20878495Y2674493D03*
G01*
X20878495Y2524480D03*
G01*
X21438488Y2524480D03*
G01*
X21438488Y2674493D03*
D20*
G01*
X20417497Y3059976D03*
G01*
X20417497Y2712986D03*
D22*
G01*
X23593094Y2743492D03*
G01*
X23593094Y2603487D03*
D19*
G01*
X22783444Y2674493D03*
G01*
X22783444Y2524480D03*
G01*
X23343463Y2524480D03*
G01*
X23343463Y2674493D03*
D20*
G01*
X22322447Y3060001D03*
G01*
X22322447Y2713012D03*
D10*
G01*
X7343978Y3305505D03*
G01*
X7216978Y3305505D03*
G01*
X7343978Y3178505D03*
G01*
X7216978Y3178505D03*
G01*
X7343978Y3051505D03*
G01*
X7216978Y3051505D03*
G01*
X7343978Y2924505D03*
G01*
X7216978Y2924505D03*
G01*
X7343978Y2797505D03*
G01*
X7216978Y2797505D03*
D26*
G01*
X10995152Y3163163D03*
G01*
X11051743Y3106572D03*
G01*
X11108309Y3050006D03*
G01*
X11164874Y2993440D03*
G01*
X11221440Y2936875D03*
G01*
X11278006Y2880309D03*
G01*
X11334572Y2823743D03*
G01*
X11391163Y2767152D03*
D27*
G01*
X11613895Y2768066D03*
G01*
X11670461Y2824632D03*
G01*
X11727053Y2881223D03*
G01*
X11783618Y2937764D03*
G01*
X11840184Y2994355D03*
G01*
X11896750Y3050895D03*
G01*
X11953316Y3107486D03*
G01*
X12009881Y3164052D03*
D26*
G01*
X12010796Y3386810D03*
G01*
X11954205Y3443376D03*
G01*
X11897639Y3499942D03*
G01*
X11841073Y3556508D03*
G01*
X11784507Y3613073D03*
G01*
X11727942Y3669639D03*
G01*
X11671376Y3726230D03*
G01*
X11614810Y3782796D03*
D27*
G01*
X11392052Y3781882D03*
G01*
X11335486Y3725316D03*
G01*
X11278895Y3668750D03*
G01*
X11222354Y3612184D03*
G01*
X11165763Y3555618D03*
G01*
X11109223Y3499053D03*
G01*
X11052632Y3442487D03*
G01*
X10996066Y3385896D03*
M02*
